<?xml version="1.0" encoding="UTF-8" standalone="no"?><!DOCTYPE svg PUBLIC "-//W3C//DTD SVG 1.1//EN" "http://www.w3.org/Graphics/SVG/1.1/DTD/svg11.dtd"><svg width="100%" height="100%" viewBox="0 0 7680 6571" version="1.1" xmlns="http://www.w3.org/2000/svg" xmlns:xlink="http://www.w3.org/1999/xlink" xml:space="preserve" xmlns:serif="http://www.serif.com/" style="fill-rule:evenodd;clip-rule:evenodd;stroke-linejoin:round;stroke-miterlimit:2;"><rect id="Artboard1" x="0" y="0" width="7679.167" height="6570.833" style="fill:none;"/><g id="Flower"><path d="M5334.712,1159.204c-9.846,16.783 -99.796,209.35 -324.579,233.054c-90.625,9.558 -308.817,-29.608 -151.329,-245.575c132.571,-181.796 468.867,-116.496 283.683,-151.967c-47.538,-9.104 -153.133,-60.721 -190.888,-101.521c-258.796,-279.667 166.783,-572.987 362.796,-215.046c16.533,30.192 17.279,-12.196 17.312,-13.975c3.308,-187.579 321.988,-265.979 396.242,-114.929c40.742,82.879 -22.25,193.312 -30.583,207.917c-27.637,48.454 157.754,-97.771 338.342,50.067c121.154,99.179 58.025,401.933 -260.017,406.983c-47.821,0.758 -47.546,-0.292 -92.796,-16.646c-2.525,0.304 -5.046,0.612 -7.571,0.917c4.754,32.1 20.958,23.454 59.287,93.846c136.008,249.775 -65.471,475.767 -296.854,220.825c-115.162,-126.887 -93.058,-334.367 -95.867,-352.783c-2.392,-0.388 -4.787,-0.775 -7.179,-1.158l0,-0.008Z"/><path d="M5539.387,981.642c-2.792,-24.108 -4.121,-23.438 -10.796,-46.467c-8.483,-29.271 164.471,-137.05 270.792,-151.154c339.867,-45.083 331.212,361.596 6.908,387.225c-108.629,8.583 -140.988,-25.279 -172.362,-46.658c-68.704,-46.821 -111.417,-58.017 -108.238,-73.683c7.142,-35.183 10.65,-34.021 13.692,-69.262l0.004,-0Z" style="fill:#e37bb8;"/><path d="M5226.183,977.004c-41.767,-9.046 -226.371,-43.358 -294.121,-180.587c-61.033,-123.629 20.654,-201.4 79.742,-228.542c209.488,-96.238 352.804,272.871 323.471,305.896c-26.058,29.338 -45.929,12.725 -82.154,94.029c-4.883,10.958 -8.154,6.675 -26.933,9.208l-0.004,-0.004Z" style="fill:#e37bb8;"/><path d="M5385.75,1283.737c-1.158,-11.679 -13.738,-138.454 3.65,-146.65c38.087,-17.946 39.987,-12.017 76.946,-31.671c38.179,-20.304 295.108,167.433 267.892,378.525c-17.458,135.412 -136.483,101.754 -180.908,74.525c-155.371,-95.238 -164.913,-260.3 -167.579,-274.725l-0,-0.004Z" style="fill:#e37bb8;"/><path d="M4956.137,1349.617c-56.558,-5.925 -129.15,-15.667 -106.787,-96.817c17.721,-64.308 73.492,-130.662 139.292,-159.033c241.729,-104.221 340.946,1.371 320.312,33.1c-5.825,8.958 -12.125,17.608 -17.867,26.625c-106.096,166.596 -189.396,195.533 -334.95,196.125Z" style="fill:#e37bb8;"/><path d="M5370.358,773.3c-6.421,-67.6 -21.267,-197.408 128.154,-252.05c85.746,-31.354 212.075,-4.05 200.412,104.754c-19.458,181.512 -185.125,232.754 -198.608,250.258c-15.629,20.283 -17.833,-11.338 -80.262,-19.454c-37.8,-4.917 -37.321,-14.062 -49.692,-83.508l-0.004,0Z" style="fill:#e37bb8;"/><path d="M5412.158,894.087c31.525,3.121 105.233,38.212 80.229,127.162c-10.704,38.075 -87.442,75.079 -103.863,70.737c-40.979,-10.833 -41.233,-10.017 -44.192,-12.183c-94.175,-69.029 -56.913,-170.833 67.821,-185.717l0.004,0Z" style="fill:#feb16f;"/></g><g id="Cloud"><path d="M6460.546,3840.1c-0.042,-7.367 1.4,-7.962 -4.042,-12.8c-51.113,-45.438 -62.271,-260.729 138.454,-236.362c50.462,6.125 72.254,55.625 80.421,5.071c22.521,-139.417 176.85,-236.887 266.458,-197.896c121.788,52.992 99.092,234.954 99.179,236.942c0.8,18.296 9.708,7.475 27.062,2.958c88.071,-22.929 187.271,7.633 221.413,89.812c47.487,114.312 -34.963,174.725 -13.546,184.746c127.042,59.429 132.7,196.725 61.338,254.617c-113.742,92.271 -223.438,15.404 -264.75,-11.142c-31.388,-20.167 -31.771,-1.979 -40.2,17.754c-56.554,132.413 -208.758,197.312 -319.696,93.188c-87.6,-82.221 -34.779,-150.671 -93.788,-136.917c-291.454,67.925 -281.412,-217.312 -158.308,-289.971l0.004,-0Z"/><path d="M7221.879,4171.012c-123.054,-7.875 -181.175,-123.283 -209.146,-57.483c-6.504,15.304 -45.575,149.675 -161.987,163.833c-45.254,5.504 -139.071,-23.2 -159.408,-133.375c-0.992,-5.367 -10.804,-58.512 -25.621,-63.225c-17.7,-5.633 -211.304,69.771 -241.796,-51.896c-7.867,-31.387 7.188,-124.167 41.683,-144.754c12.163,-7.258 59.783,-19.213 51.692,-64.171c-6.15,-34.167 -37.508,-8.488 -46.492,-38.475c-45.479,-151.825 114.45,-202.058 193.533,-100.342c49.217,63.304 51.762,3.838 51.404,-0.262c-0.404,-4.625 -25.646,-107.621 60.221,-190.812c118.062,-114.379 242.508,-61.929 224.1,152.1c-0.408,4.762 -4.388,51.004 6.696,59.354c22.913,17.262 79.1,-63.421 192.254,-14.021c41.863,18.275 107.408,110.875 28.533,200.137c-60.217,68.146 20.704,49.8 54.95,73.138c69.158,47.121 108.1,190.329 -60.625,210.254l0.008,-0Z" style="fill:#a5c9d9;"/><path d="M7117.292,4666.271c-103.542,112.729 -124.196,154.863 -140.296,119.013c-25.971,-57.833 96.004,-181.542 65.904,-189.696c-36.817,-9.971 -103.296,17.283 -88.033,-71.442c33.029,-191.992 34.921,-195.867 50.825,-200.408c10.696,-3.054 10.55,-1.337 138.962,4.083c75.746,3.196 -26.288,131.979 6.6,143.538c29.192,10.258 140.1,12.117 52.571,104.033c-6.921,7.271 -86.45,90.783 -86.533,90.875l0,0.004Z"/><path d="M6560.558,4519.212c-78.529,89.854 -115.517,155.367 -129.342,113.325c-7.454,-22.663 94.221,-205.875 64.933,-213.283c-42.392,-10.725 -109.796,38.129 -87.804,-66.208c11.404,-54.108 10.504,-53.613 17.608,-107.812c4.079,-31.121 30.221,-35.704 153.562,-19.696c78.204,10.15 0.188,76.358 31.633,88.596c33.075,12.871 115.558,8.871 50.058,90.387c-29.662,36.917 -92.417,105.675 -100.646,114.692l-0.004,0Z" style="fill-opacity:0.99;"/><path d="M7098.125,4365.279c26.808,3.717 34.967,-1.421 31.967,11.333c-10.475,44.521 -63.329,112.733 -0.692,129.829c41.321,11.275 72.096,11.092 45.508,39.858c-46.925,50.767 -47.171,49.646 -91.375,102.771c-61.075,73.396 2.788,-31.442 4.204,-33.767c60.892,-99.962 -101.733,-34.125 -94.175,-83.55c25.463,-166.517 28.554,-171.688 42.629,-170.958c4.962,0.258 4.587,0.333 61.933,4.483Z" style="fill:#fbdaa5;"/><path d="M6533.537,4492.6c-1.312,-3.454 -6.638,-4.267 -7.954,-7.721c-0.683,-1.8 0.092,-1.879 9.733,-22.679c58.979,-127.238 -70.742,-67.246 -87.692,-84.817c-6.133,-6.358 -3.163,-7.767 15.237,-109.354c4.038,-22.304 117.512,-18.229 105.925,14.671c-25.183,71.5 13.888,61.9 58.775,76.042c21.963,6.921 -9.287,32.254 -94.025,133.854l0,0.004Z" style="fill:#fddba5;"/></g><g id="Cat"><path d="M977.179,3677.15c130.408,-141.358 110.65,75.104 172.95,143.592c147.925,162.612 22.758,518.537 -230.188,604.554c-144.721,49.212 -374.608,-2.487 -524.821,-97.95c-146.967,-93.4 -139.396,-358.217 -62.067,-444.267c40,-44.512 16.904,-52.062 18.346,-117.488c4.771,-216.9 128.629,-49.392 175.092,-1.612c18.442,18.962 85.429,-38.683 153.162,-41.242c132.375,-4.996 231.933,34.275 238.588,26.471c30.483,-35.75 28.292,-36.962 58.938,-72.058Z"/><path d="M787.733,4404.262c-111.212,-11.088 -177.133,-11.979 -323.446,-84.55c-224.929,-111.563 -139.196,-384.85 -93.267,-421.408c55.55,-44.217 3.458,-120.346 27.117,-188.35c9.817,-28.221 104.392,85.171 104.779,85.887c24.346,44.929 37.633,12.075 115.871,-19.079c49.929,-19.883 173.971,-26.892 284.213,21.475c39.254,17.221 40.446,-29.083 117.867,-108.725c32.146,-33.067 45.371,29.85 62.525,91.129c22.963,82.046 58.504,65.338 80.021,148.221c39.5,152.154 -65.496,307.992 -69.917,313.692c-129.042,166.4 -248.583,159.329 -305.763,161.712l0,-0.004Z" style="fill:#feb16f;"/><path d="M733.587,4140.108c135.687,-24.887 57.737,65.304 52.75,73.271c-12.012,19.183 21.75,45.863 39.292,50.129c80.142,19.504 60.167,-106.683 72.983,-115.367c39.713,-26.913 39.592,80.304 19.317,111.742c-53.412,82.833 -131.221,26.125 -140.383,19.45c-15.525,-11.317 -27.338,6.483 -44.542,9.088c-139.817,21.171 -153.696,-125.038 -115.517,-129.075c32.533,-3.442 20.771,13.858 26.379,46.592c11.088,64.725 111.213,59.158 92.062,7.317c-6.854,-18.55 -106.742,-72.229 -2.338,-73.142l-0.004,-0.004Z" style="fill:#010100;"/><path d="M1247.629,4163.837c55.463,-27.779 170.929,34.958 186.587,46.438c12.396,9.088 20.133,55.604 -34.158,24.671c-115.021,-65.538 -175.208,-19.6 -152.429,-71.104l0,-0.004Z"/><path d="M1232.15,4063.262c58.225,-34.483 162.908,-46.367 173.767,-34.229c25.442,28.45 -48.737,35.846 -53.912,36.363c-66.833,6.663 -145.442,60.817 -119.85,-2.133l-0.004,-0Z" style="fill-opacity:0.99;"/><path d="M265.187,4139.908c-12.75,8.633 -177.133,51.146 -171.925,4.946c1.404,-12.442 4.712,-17.158 152.983,-33.029c22.013,-2.354 21.658,5.875 18.938,28.083l0.004,0Z"/><path d="M244.171,3993.637c44.967,36.292 -0.483,41.9 -13.408,35.242c-112.875,-58.138 -137.588,-62.142 -114.171,-83.192c17.342,-15.587 74.496,20.438 127.583,47.954l-0.004,-0.004Z"/><path d="M831.217,4020.487c1.592,-5.413 18.146,-61.679 55.763,-43.179c63.983,31.462 -48.487,122.546 -55.763,43.179Z"/><path d="M582.458,4020.537c0.688,-3.8 10.046,-55.679 42.633,-22.667c30.963,31.367 -21.542,78.033 -42.633,22.667Z"/></g><g id="Butterfly"><path d="M2466.742,663.962c2.271,0.287 4.546,0.579 6.817,0.867c2.358,-0.375 2.396,5.738 4.758,5.363c4.325,-0.683 -6.637,-39.95 40.5,-122.25c120.079,-209.65 354.992,-142.913 297.387,132.692c-24.246,115.996 -111.4,180.808 -88.442,186.8c16.65,4.346 65.192,-4.317 123.096,69.029c79.708,100.963 -52.392,219.167 -176.217,184.375c-22.529,-6.329 -35.125,-15.542 -33.054,7.821c0.842,9.508 14.196,160.208 -56.796,104.954c-15.242,-11.862 -31.058,-51.217 -39.088,-19.179c-46.642,186.15 -220.829,89.85 -231.208,-8.812c-5.083,-48.317 19.579,-94.6 4.775,-93.842c-103.471,5.304 -106.663,20.862 -202.05,-20.396c-265.079,-114.65 -206.004,-515.146 130.762,-384.767c76.592,29.654 143.846,98.825 145.812,73.467c5.025,-64.758 -248.892,-401.275 -297.125,-284.7c-20.812,50.3 -91.396,-31.117 -62.375,-69.321c33,-43.442 42.271,8.604 68.108,8.3c51.221,-0.604 98.321,-19.308 236.783,162.829c54.979,72.321 65.667,130.783 93.904,104.021c22.696,-21.512 -46.217,-79.983 -92.163,-384.462c-20.321,-134.683 115.262,-110.283 96.054,-45.896c-4.758,15.946 -21.454,29.013 -40.35,20.975c-27.875,-11.858 -33.771,19.067 70.108,372.142l-0,-0.008Z" style="fill:#000600;"/><path d="M2257.021,1077.562c-15.438,-0.717 -126.4,-5.867 -183.908,-59.146c-71.342,-66.092 -87.829,-144.246 -79.475,-191.487c39.95,-225.896 389.246,-26.787 420.137,45.596c51.779,121.325 39.512,125.529 102.946,265.158c6.458,14.217 -16.104,91.613 -23.087,105.383c-34.654,68.329 -109.354,11.412 -112.408,8.737c-64.629,-56.496 8.442,-165.625 9.433,-169.071c4.5,-15.625 -10.679,-29.733 -25.721,-26.067c-53.608,13.067 -52.471,16.504 -107.913,20.896l-0.004,0Z" style="fill:#6db994;"/><path d="M2721.112,1085.654c-39.438,-2.246 -37.596,-10.758 -77.471,-13.325c-24.5,-1.579 8.15,-26.217 -113.871,-284.979c-12.479,-26.458 12.137,-33.083 -7.604,-55.296c-71.25,-80.171 176.35,-419.475 253.696,-191.417c57.65,169.983 -137.337,330.212 -125.462,364.129c15.204,43.417 77.417,-43.283 161.162,47.896c29.125,31.708 48.683,117.517 -90.454,132.987l0.004,0.004Z" style="fill:#6db994;"/><path d="M2600.708,1128.208c0.004,0.058 9.225,54.283 -3.433,54.421c-29.375,0.325 -162.008,-330.292 -159.433,-378.404c1.817,-33.954 -2.496,-69.588 20.829,-55.296c5.312,3.254 38.404,50.446 93.2,193.708c26.967,70.5 45.971,170.487 48.837,185.571Z" style="fill:#feb16f;"/><path d="M2206.758,1280.996c64.217,85.4 138.762,70.029 104.833,103.258c-34.921,34.2 -193.487,-110.708 -139.196,-138.858c19.971,-10.354 28.846,22.267 34.363,35.6Z"/><path d="M2940.625,893.554c-2.696,-2.271 -30.05,-21.346 -17.625,-34.896c45.9,-50.071 113.004,136.221 61.804,148.933c-42.917,10.654 1.383,-54.375 -44.179,-114.038Z" style="fill-opacity:0.99;"/><path d="M2130.229,1418.608c-49.55,-43.846 2.663,-44.1 8.958,-39.646c72.388,51.183 76.292,49.638 75.921,58.883c-0.275,6.958 -9.183,39.487 -84.879,-19.238Z"/><path d="M3034.404,853.75c-11.892,-12.029 -17.921,-11.438 -11.875,-26.783c17.062,-43.317 79.104,41.067 58.512,75.108c-20.758,34.321 -39.9,-36.963 -46.637,-48.325Z" style="fill-opacity:0.99;"/></g><g id="Heart"><path d="M5190.854,5765.392c10.233,-0.096 9.629,-1.371 14.762,-10.442c37.613,-66.437 195.233,-213.725 312.196,-114.958c77.737,65.646 20.113,276.492 -3.588,337.992c-57.696,149.721 -249.725,331.012 -320.979,382.629c-81.429,58.988 -98.758,20.913 -140.817,-52.812c-199.842,-350.337 -298.783,-399.817 -285.992,-569.896c11.704,-155.583 125.667,-172.421 143.588,-175.071c200.363,-29.604 265.337,162.871 280.829,202.554l0,0.004Z"/><path d="M5516.967,5753.083c-11.867,188.413 -50.4,302.029 -289.588,526.767c-87.762,82.462 -100.996,67.071 -107.4,59.621c-20.796,-24.188 -6.054,-33.796 -213.742,-336.583c-11.475,-16.729 -158.292,-204.408 -72.663,-349.475c49.171,-83.296 262.587,-97.612 333.033,161.096c3.654,13.425 -2.137,133.408 43.188,76.746c18.587,-23.238 -30.096,-80.525 96.9,-188.933c79.446,-67.821 132.708,-54.321 144.608,-51.304c73.554,18.642 65.225,96.729 65.658,102.071l0.004,-0.004Z" style="fill:#f78885;"/></g><g id="Stampy"><path d="M5296.125,2274.662c7.783,1.987 15.562,3.979 23.346,5.967c59.725,15.183 60.996,10.983 114.471,41.371c16.913,9.613 43.996,33.383 47.604,36.554c8.15,8.154 7.65,7.654 15.454,15.379c2.608,2.542 5.213,5.083 7.821,7.621c6.963,8.942 7.363,7.6 14.413,16.367c3.45,4.287 3.108,3.6 7.137,8.258c2.867,4.821 5.729,9.637 8.596,14.458c14.6,19.758 30.142,70.363 32.096,76.721l2.3,14.979c9.896,38.429 4,82.637 3.613,93.204c-1.925,7.808 -3.85,15.613 -5.775,23.421c-93.017,302.271 -524.487,270.142 -526.296,270.162c-23.392,6.467 -12.688,14.896 -9.479,39.058c0.275,70.162 0.267,69.55 2.95,139.087c0.679,15.45 1.354,30.896 2.033,46.346c3.717,28.133 4.925,27.492 9.446,55.225c3.462,21.267 -5.175,41.492 -6.596,44.825c-6.433,8.075 -12.267,15.183 -13.346,16.492c-6.279,5.225 -6.208,4.846 -9.483,12.483l-14.2,2.262c-10.279,0.142 -20.554,0.279 -30.833,0.421c-44.971,-22.321 -42.221,-30.792 -47.683,-123.608l-1.05,-23.258c-3.521,-35.429 -6.863,-163.571 -7.233,-177.804c-0.188,-10.354 -0.379,-20.708 -0.567,-31.062c-0.946,-46.429 -0.883,-45.558 -0.646,-92.85c0.012,-25.775 0.021,-51.55 0.033,-77.325c-0.962,-112.737 -3.229,-111.921 -6.421,-224.096c-0.337,-15.463 -0.675,-30.925 -1.012,-46.392c-8.379,-26.442 -14.721,-22.25 -28.625,-46.404c-1.192,-9.758 -2.379,-19.517 -3.571,-29.275c40.358,-59.508 36.804,-62.121 58.779,-77.85c19.438,-2.812 18.754,-2.508 38.046,-1.458c13.404,-0.371 13.108,1.096 22.387,-2.179c161.15,-56.883 287.425,-28.183 302.3,-27.1l-185.6,112.625c-4.983,0.387 -24.758,1.929 -61.688,9.938c-7.838,2.133 -15.679,4.271 -23.517,6.404c-24.95,13.804 -11.629,21.917 -6.433,116.817c9.117,17.942 4.562,18.625 5.054,38.867c1.908,104.837 2.167,104.025 3.05,208.683c0.204,23.967 35.879,18.4 129.758,14.179c2.658,-1.963 1.579,-6.742 31.296,-4.742l23.021,-1.942c7.838,-2.008 15.671,-4.017 23.508,-6.025c9.25,-3.342 89.329,-19.212 140.346,-61.667c2.646,-2.567 5.292,-5.133 7.933,-7.7c4.792,-2.95 9.583,-5.9 14.375,-8.85c2.396,-4.046 -1.004,-9.992 1.392,-14.038c1.233,-2.083 5.392,1.021 7.242,-0.542c3.196,-2.704 -1.8,-3.833 1.008,-6.433c2.933,-2.717 3.829,1.954 7.021,-1.004c2.625,-2.575 5.25,-5.154 7.871,-7.729c90.429,-99.554 36.65,-311.529 -289.088,-276.171c-7.383,0.65 -14.767,1.3 -22.15,1.954l185.6,-112.625l-0.008,0Z" style="fill:#fff;fill-opacity:0.99;"/><path d="M3354.096,2451.833c10.442,19.546 8.954,20.154 10.067,21.712c4.45,11.275 61.033,122.488 66.429,133.096c3.133,6.158 39.037,76.729 39.179,76.958c32.317,52.954 123.238,347.758 123.271,347.921c9.375,43.408 19.125,40 26.333,84.058c4.233,25.871 16.05,21.113 20.854,47.158c16.496,89.421 -69.462,72.9 -74.842,73.9c-8.433,1.571 -7.175,-7.208 -10.717,-10.325c-40.488,-35.608 -25.229,-51.808 -35.892,-56.658c-7.267,-3.304 -10.558,-33.321 -16.529,-45.913c-2.433,-7.775 -4.871,-15.546 -7.304,-23.321c-2.133,-5.258 -4.262,-10.512 -6.396,-15.771l-1.1,-7.508c-2.1,-5.233 -4.196,-10.462 -6.296,-15.696c-1.217,-5.533 -12.192,-55.408 -20.121,-67.925c-12.275,-19.375 -124.167,-5.075 -130.05,-4.708c-36.712,-7.637 -36.312,-0.608 -53.1,1.238c-166.017,0.725 -221.921,1.2 -239.379,3.887c-6.454,0.996 -23.646,12.858 -24.104,13.025c-4.796,3.008 -9.592,6.012 -14.387,9.021c-5.492,8.517 -5.404,7.708 -5.492,8.517c-2.629,24.675 -7.125,22.875 -16.729,45.792c-1.821,4.342 -15.071,35.967 -21.671,54.738c-19.746,56.142 -5.754,59.754 -23.825,92.867c-24.45,44.804 -46.567,33.908 -79.371,35.117c-34.888,1.288 -37.637,-61.037 -37.908,-67.204c2.442,-7.688 4.879,-15.379 7.321,-23.067c3.583,-7.375 2.971,-7.012 2.183,-14.637c-0.617,-5.988 8.588,-14.071 9.846,-17.608c25.121,-70.65 24.046,-70.617 54.104,-139.154l3.475,-14.158c9.504,-19.083 4.575,-20.613 14.908,-38.908c5.004,-11.246 5.329,-10.263 8.129,-22.95c10.221,-19.879 81.9,-221.254 90.533,-240.671c20.162,-45.358 10.525,-47.988 13.037,-51.404c6.287,-8.554 7.396,-7.367 11.617,-17.646c4.812,-11.725 3.537,-11.688 7.875,-23.15c10.271,-27.137 6.896,-27.387 17.188,-53.654c23.317,-59.508 25.233,-58.117 26.071,-63.546c1.108,-7.154 4.621,-29.862 32.133,-84.617c7.158,-14.25 34.254,-155.983 116.408,-112.408c67.479,35.792 49.162,53.046 124.254,183.6l-138.954,-28.546c-8.821,4.171 -10.171,3.642 -11.246,13.413c-3.654,33.221 -54.508,168.846 -55.012,169.829c0.913,7.913 0.988,7.775 -3.513,14.221c-2.496,5.325 1.292,6.471 -24.037,69.492c-17.417,43.337 -22.721,63.321 -24.221,68.971c-4.029,15.179 -31.288,79.988 -34.183,86.871c-16.946,40.283 -4.85,41.617 -1.508,41.983c3.221,0.354 2.6,-1.354 39.721,-7.908c9.938,-0.679 19.875,-1.358 29.817,-2.037c47.413,-1.696 46.579,-1.55 93.817,-5.958l7.004,-2.367c15.475,-6.288 15.796,-5.713 30.333,1.579l8.058,0.542c7.683,0.65 15.367,1.304 23.046,1.954c15.779,-3.617 15.375,-3.608 31.004,-0.292c36.733,-0.362 100.233,7.879 92.308,-20.304c-1.208,-4.304 -1.425,-3.804 -18.729,-52.646c-0.904,-2.554 -9.933,-2.604 -8.783,-10.721c0.742,-5.238 1.904,-13.475 -24.788,-61.288c-1.783,-3.196 -0.113,-3.517 -2.25,-6.467c-3.417,-4.713 -2.729,-4.442 -5.467,-8.896c-2.571,-5.154 -5.142,-10.312 -7.713,-15.467c-17.933,-24.196 -9.379,-28.254 -25.967,-52.754c-14.508,-21.429 -44.142,-93.225 -47.421,-100.083c-1.588,-3.317 -45.196,-82.625 -53.025,-116.288l-7.242,-5.379l138.954,28.546l-0.008,0.004Z" style="fill:#fff;fill-opacity:0.99;"/><path d="M4547.737,2336.35c2.296,-3.079 19.879,-26.7 37.925,-29.442c65.896,-10.017 76.658,65.779 77.871,74.304c0.567,18.067 1.137,36.137 1.704,54.204c21.038,155.829 27.992,305.792 29.229,332.462l1.217,31.021c3.55,46.546 5.904,99.504 6.288,108.163l1.913,23.05c3.158,14.729 3.192,14.625 3.408,15.908c1.954,11.525 0.538,11.229 2.5,22.817l1.087,15.463c7.317,29.642 8.563,114.242 8.708,124.2c-1.375,24.058 -3.892,23.892 3.208,46.329c-0.15,6.571 -1.362,60.188 -45.483,68.429c-56.079,10.475 -68.796,-37.867 -74.608,-46.183c0.717,-7.425 1.429,-14.854 2.146,-22.279c-6.229,-46.529 2.671,-45.846 1.621,-92.633l-1.683,-23.108c-16.037,-78.842 -20.738,-199.287 -21.412,-216.692c-0.321,-10.325 -0.642,-20.646 -0.967,-30.971c-3.483,-34.279 -7.004,-113.633 -7.446,-123.525c-0.896,-15.975 -0.417,-15.417 -4.188,-31.329l-2.629,-30.667l-1.842,-23.088c-2.954,-15.433 -3.05,-46.25 -3.95,-47.429c-8.108,-10.642 -16.108,9.25 -21.779,17.804c-39.738,59.925 -41.967,57.425 -45.283,62.646c-6.529,10.283 -79.917,125.9 -81.871,128.363c-5.408,6.929 -5.363,6.479 -8.254,14.904c-2.296,2.825 -4.587,5.646 -6.883,8.471c-2.817,4.933 -5.633,9.867 -8.446,14.8c-17.363,22.379 -13.242,24.654 -30.542,46.9c-2.833,4.904 -5.667,9.808 -8.5,14.712c-2.229,2.879 -4.458,5.754 -6.683,8.633c-2.888,4.821 -5.771,9.646 -8.658,14.467c-5.217,6.225 -5.825,4.75 -10.954,11.187c-5.862,6.288 -5.05,6.079 -19.825,27.404c-2.713,2.771 -24.05,24.554 -38.175,29.829c-64.983,24.25 -96.946,-53.958 -113.242,-83.412c-2.713,-5 -5.425,-10.004 -8.142,-15.004c-12.95,-17.475 -7.929,-20.071 -30.488,-47.117c-2.979,-4.8 -5.954,-9.6 -8.933,-14.4c-3.146,-4.742 -6.292,-9.479 -9.442,-14.221c-4.821,-6.692 -4.238,-6.742 -11.846,-10.217c-1.929,-5.508 -4.462,-12.746 -41.117,-60.271c-99.021,-128.375 -131.088,-205.75 -133.358,-206.312c-4.062,-1.008 -7.067,6.821 -11.125,5.812c13.279,114.367 -9.604,276.912 9.325,410.346c-1.958,15.35 -1.675,14.708 1.9,29.858c1.304,51.371 1.046,50.796 6.079,101.529c-2.742,15.267 -2.417,14.883 1.367,29.8c-0.783,150.917 14.037,171.054 -36.796,200.296c-19.046,0.717 -18.442,1.467 -37.967,-0.021c-17.042,-9.867 -17.917,-8.192 -29.696,-23.592c-2.583,-7.354 -5.167,-14.704 -7.75,-22.058c-1.883,-78.525 -1.204,-77.817 -5.587,-155.521c1.025,-15.254 0.583,-14.779 -1.788,-29.979c-1.475,-47.579 -1.279,-46.746 -5.812,-93.967c1.625,-11.442 1.337,-10.738 -1.433,-22.05c-1.038,-32.779 -9.004,-284.592 2.837,-409.925c0.429,-15.483 0.858,-30.963 1.292,-46.446c3.062,-67.654 2.15,-215.538 132.887,-116.133c3.575,3.45 20.925,21.733 22.729,23.637c62.792,72.75 136.6,200.65 191.517,264.571c3.629,8.35 3.496,7.525 9.137,14.092c7.188,8.725 6.829,8.296 14.192,16.712c3.521,8.442 3.404,7.608 8.938,14.258c16.008,19.404 13.938,20.463 29.942,39.621c2.962,4.792 5.925,9.588 8.883,14.379c20.812,27.604 33.787,80.896 54.6,30.554c2.9,-4.912 5.8,-9.825 8.7,-14.738c1.2,-2.492 8.462,-17.567 17.417,-29.858c57.354,-78.733 63.633,-104.229 98.075,-148.446c2.996,-4.775 5.992,-9.55 8.992,-14.325c23.092,-27.096 78.821,-109.938 84.175,-116.933c5.529,-6.888 5.425,-6.179 8.688,-14.613c2.354,-2.804 4.704,-5.604 7.058,-8.408c5.592,-6.9 5.346,-6.488 8.133,-15.025c7.15,-8.279 6.583,-7.613 7.15,-8.279c2.367,-2.792 -0.508,-3.338 1.867,-6.575c11.642,-15.863 10.196,-15.925 21.567,-32.038c2.771,-4.9 5.542,-9.8 8.312,-14.7l0,-0.008Z" style="fill:#fff;fill-opacity:0.99;"/><path d="M1739.104,2278.154l23.137,2l15.162,1.958c7.738,2.308 15.475,4.621 23.208,6.929c31.404,15.137 60.283,13.667 124.717,76.071c8.95,9.467 20.421,22.217 22.175,24.167c10.804,12.729 10.504,12.383 21.692,24.554c3.154,8.429 3.121,7.954 8.558,14.504c17.346,22.571 30.754,55.804 32.825,60.942c56.562,140.204 -88.633,150.821 -92.204,77.642c-1.454,-29.787 -0.821,-29.833 -15.35,-55.346c-2.979,-4.837 -5.958,-9.675 -8.938,-14.512c-7.062,-8.65 -6.725,-8.258 -14.304,-16.667c-3.196,-4.587 -6.396,-9.179 -9.592,-13.767c-17.017,-18.683 -15.975,-19.296 -37.213,-32.683c-73.854,-57.663 -130.392,-43.108 -163.596,-36.779c-5.312,1.938 -10.621,3.875 -15.933,5.817c-19.554,6.867 -65.379,16.058 -109.392,53.95c-8.358,3.654 -7.658,3.604 -14.1,9.354c-2.633,2.971 -28.358,31.963 -31.017,38.733c-2.621,5.137 -5.242,10.271 -7.862,15.408c-7.729,15.817 -8.467,28.425 -8.617,30.992c-4.929,84.279 31.517,87.092 38.367,102.317c10.508,23.358 108.308,47.296 118.275,49.737c134.217,32.85 232.7,44.771 337.938,158.808c2.987,4.758 5.975,9.517 8.962,14.275c33.5,46.8 37.292,91.838 38.008,100.392c10.479,124.554 -66.083,180.329 -78.029,191.371c-8.3,3.512 -7.483,3.392 -14.171,8.971c-2.829,2.267 -5.658,4.533 -8.488,6.8c-4.912,2.838 -9.821,5.675 -14.733,8.513c-9.296,6.629 -22.104,12.533 -24.113,13.458c-141.112,65.062 -330.871,48.779 -425.254,-2.717c-31.317,-17.087 -87.621,-53.329 -111.017,-181.258c0.292,-7.279 0.579,-14.558 0.871,-21.838c0.054,-34.492 -6.512,-38.629 19.037,-61.504c6.237,-5.587 30.612,-17.517 46.512,-10.162c73.2,33.871 30.829,63.721 67.817,141.938c3.062,4.812 6.125,9.629 9.183,14.442c2.496,2.65 4.992,5.304 7.488,7.954c28.225,23.767 193.058,82.129 349.196,1.646c8.808,-3.35 7.958,-3.25 14.846,-8.6c3.379,-2.817 35.058,-29.229 38.35,-39.4c2.108,-6.517 16.925,-52.329 0.721,-85.6c-2.637,-5.15 -5.275,-10.296 -7.912,-15.446c-2.221,-2.912 -4.446,-5.825 -6.667,-8.738c-3.275,-4.604 -6.546,-9.204 -9.821,-13.808c-74.417,-61.604 -79.675,-52.054 -169.646,-86.25c-7.804,-2.271 -15.608,-4.546 -23.413,-6.817c-8.696,-2.367 -88.496,-24.079 -109.221,-27.525c-244.067,-40.608 -316.733,-380.121 15.95,-499.537c80.7,-28.967 81.658,-25.971 147.604,-24.692l0,0.004Z" style="fill:#fff;fill-opacity:0.99;"/><path d="M5713.958,2312.233l23.175,-1.087c22.725,7.604 27.525,2.854 67.787,56.008c2.717,4.975 5.429,9.954 8.146,14.929c2.313,3.071 20.592,35.996 22.342,39.146c51.854,93.404 56.6,90.146 101.137,170.017c2.717,5.004 5.438,10.012 8.154,15.017c6.246,8.288 26.642,58.121 53.488,93.5c2.858,4.908 5.713,9.817 8.571,14.729c19.608,24.729 15.596,26.821 34.738,51.429c30.971,39.812 33.054,-3.542 90.779,-82.413c2.838,-4.933 5.679,-9.862 8.517,-14.796c2.158,-2.892 4.317,-5.783 6.475,-8.675c2.917,-4.888 5.838,-9.775 8.754,-14.663c2.308,-3.833 18.358,-30.488 30.329,-46.975c2.858,-4.912 5.717,-9.821 8.575,-14.733c2.217,-3.887 15.979,-28.029 29.929,-47.225c2.867,-4.904 5.733,-9.804 8.6,-14.708c18.733,-30.65 97.604,-136.25 102.396,-154.2c10.475,-3.983 9.746,-4.792 13.296,-16.087c5.721,-6.717 20.283,-39.167 83.525,-23.458c5.646,5.346 20.062,21.267 21.771,23.15c13.071,31.071 -3.175,57.146 -5.783,61.325c-5.175,8.304 -32.838,52.692 -70.504,99.95c-5.525,6.85 -5.421,6.029 -8.775,14.421c-27.642,32.225 -22.883,34.688 -37.917,55.058c-2.792,4.946 -5.587,9.892 -8.379,14.837c-1.579,2.717 -11.675,15.992 -12.717,17.363c-16.967,22.312 -82.583,148.858 -163.738,246.575c-34.296,41.292 -19.525,46.504 -20.921,100.404c0.583,15.946 1.133,15.475 4.088,31.287c0.879,12.808 1.758,25.617 2.637,38.425c1.775,7.825 3.554,15.65 5.329,23.475c1.038,12.646 1.45,12.154 5.246,24.625c-1.188,11.192 -1.079,10.596 2.042,21.796c0.954,12.8 1.904,25.604 2.858,38.404c1.625,10.371 3.25,20.746 4.875,31.117c2.812,70.379 -1.963,70.046 -0.95,76.046c0.071,0.429 -14.192,29.646 -51.35,32.712c-63.996,5.279 -62.446,-77.571 -65.925,-109.875c1.133,-11.517 0.604,-11.137 -2.1,-22.162c-3.921,-56.692 -7.304,-55.712 -13.288,-94.008c1.104,-11.062 0.942,-10.496 -1.771,-21.967c-1.046,-58.458 0.096,-57.917 -0.288,-116.092c-0.079,-12.125 -19.637,-24.829 -53.988,-63.4c-3.546,-8.083 -3.4,-7.312 -9.171,-14.083c-7.133,-8.871 -6.838,-8.492 -14.479,-16.604c-4.575,-13.867 -6.517,-12.042 -15.25,-22.921c-39.663,-65.425 -40.858,-64.008 -77.538,-131.288c-2.717,-5 -5.433,-10 -8.146,-15c-9.754,-14.992 -42.375,-71.562 -45.988,-77.829c-2.708,-5.008 -5.417,-10.012 -8.125,-15.021c-7.521,-10.208 -34.712,-64.45 -37.562,-70.137c-34.146,-68.113 -32.825,-68.621 -36.075,-74.379c-4.588,-8.125 -77.292,-60.446 3.158,-101.975l0.008,0.017Z" style="fill:#fff;fill-opacity:0.99;"/><path d="M2403.783,2286.696c39.062,0.042 38.512,0.042 77.675,-0.046c116.238,0.579 115.746,0.625 231.654,0.004c20.654,-0.312 41.308,-0.629 61.962,-0.942l7.825,-0.05c10.096,1.438 20.196,2.871 30.292,4.308c19.538,4.871 34.683,34.496 36.613,38.267c-3.204,18.629 -3.038,18.188 -5.863,37.342c-26.262,44.212 -32.938,42.108 -84.129,37.408c-23.017,-6.742 -22.938,-3.658 -46.442,-0.7l-15.592,0.283c-19.488,-1.883 -19.017,-1.896 -38.629,0.113c-99.812,0.004 -141.537,-3.796 -145.371,10.175c-1.304,4.75 3.213,375.221 11.175,409.992c0.262,1.146 4.542,77.233 4.917,83.95c1.329,7.9 2.658,15.796 3.987,23.696c0.763,10.258 1.529,20.512 2.292,30.771c1.771,7.804 3.542,15.604 5.312,23.408c7.775,128.725 46.133,196.625 -29.204,209.083c-40.987,6.779 -59.292,-33.775 -61.696,-39.1c-10.637,-23.562 -7.5,-34.804 -8.296,-38.508c-1.867,-7.796 -3.733,-15.592 -5.6,-23.388c-4.283,-65.321 -10.454,-64.071 -16.592,-146.867c-0.604,-8.171 -5.254,-70.896 -12.271,-101.692c2.238,-15.129 1.971,-14.508 -2.067,-29.762c-0.467,-29.083 -4.113,-256.021 2.954,-363.562l1.279,-31c-0.05,-1.196 4.525,-20.796 -13.904,-21.575c-110.354,-4.658 -171.133,4.304 -202.8,-13.346c-37.492,-20.892 -29.883,-36.312 -26.579,-71.871c7.562,-2.921 7.375,-2.546 12.887,-9.133c16.425,-13.775 28.383,-13.883 31.108,-13.904c96.867,-0.85 96.35,-1.592 193.087,-3.35l0.013,-0.004Z" style="fill:#fff;fill-opacity:0.99;"/></g><g id="Star"><path d="M2338.562,5811.117c55.854,52.6 156.242,135 96.817,145.637c-16.971,3.038 -300.433,-66.608 -322.696,-39.521c-8.087,9.842 -121.008,298.192 -126.083,300.337c-30.246,12.787 -16.204,-15.271 -56.008,-185.629c-18.679,-79.946 -21.862,-130.283 -44.837,-130.821c-156.258,-3.658 -366.479,10.375 -374.988,-31.217c-11.383,-55.654 326.304,-215.925 327.9,-248.275c3.133,-63.688 -142.617,-344.246 44.533,-190.129c99.458,81.9 103.125,105.621 143.996,77.238c194.517,-135.083 349.229,-293.021 288.254,-96.929c-34.383,110.567 -123.704,270.942 -102.192,292.162c9.392,9.262 10.596,7.654 125.308,107.15l-0.004,-0.004Z" style="fill:#010000;"/><path d="M1905.621,5730.529c-14.475,-69.3 -16.642,-69.275 -14.3,-78.575c5.129,-20.362 87.783,-62.496 96.125,-66.75c11.875,-6.054 14.604,-2.858 150.863,109.208c15.438,12.696 15.287,18.979 -41.621,152.392c-7.129,16.708 -11.317,18.996 -148.788,12.338c-21.254,-1.029 -23.8,-41.325 -42.275,-128.617l-0.004,0.004Z" style="fill:#fedca6;"/><path d="M1578.7,5846.962c16.85,-15.025 211.883,-136.5 247.408,-160.038c36.621,-24.267 30.346,7.533 39.217,50.179c22.171,106.575 32.396,122.025 4.996,121.983c-31.933,-0.046 -281.692,0.238 -287.229,-4.058c-2.421,-1.875 -1.971,-6.192 -4.387,-8.067l-0.004,0Z" style="fill:#fedca6;"/><path d="M2186.333,5442.387c42.846,-31.471 86.887,-68.875 93.896,-60.462c9.992,11.996 -94.442,248.083 -103.779,269.188c-10.946,24.742 -17.833,6.592 -38.446,-10.329c-56.058,-46.012 -100.379,-76.417 -97.629,-88.775c1.908,-8.579 5.521,-5.283 87.771,-66.075c29.25,-21.617 28.717,-21.512 58.188,-43.55l0,0.004Z" style="fill:#fedca6;"/><path d="M2179.383,5872.604c-34.971,-4.154 -35.333,-2.621 -37.733,-4.483c-8.075,-6.271 -10.6,-10.654 40.137,-121.367c6.704,-14.629 36.633,13.837 44.967,21.042c64.796,55.996 62.429,57.613 126.929,113.858c1.375,1.2 35.363,30.838 4.042,22.425c-61.679,-16.567 -61.471,-14.283 -178.342,-31.475Z" style="fill:#fedca6;"/><path d="M1981.183,6092.483c-15.529,-101.113 -23.317,-98.954 -35.312,-176.833c-4.171,-27.075 117.85,-9.954 118.838,-9.079c11.604,10.287 1.246,13.3 -67.554,181.679c-0.362,0.883 -0.329,0.821 -4.458,11.067c-3.838,-2.279 -7.675,-4.558 -11.508,-6.833l-0.004,0Z" style="fill:#fddba5;"/><path d="M1393.437,5385.821c77.438,32.942 279.404,67.837 233.938,108.575c-14.071,12.604 -15.529,-4.821 -227.879,-61.896c-88.362,-23.75 -21.662,-53.542 -15.896,-52.346c0.887,0.183 0.729,0.421 9.833,5.671l0.004,-0.004Z" style="fill-opacity:0.99;"/><path d="M2268.533,6145.754c44.804,94.567 58.846,123.412 64.05,134.1c6.171,12.671 39.842,71.267 9.65,77.05c-15.625,2.992 -19.692,-1.858 -121.667,-225.829c-17.7,-38.879 17.408,-49.167 30.167,-22.996c6.087,12.483 11.712,25.192 17.8,37.675Z"/><path d="M2013.454,5235.042c-2.754,-93.321 -3.446,-92.808 -9.796,-185.654c-1.646,-24.092 40.667,-27.717 42.096,7.996c7.487,187.133 6.033,206.342 4.679,224.233c-3.183,42.079 -38.221,40.3 -37.696,7.504c0.071,-4.325 0.725,-45.125 0.717,-54.079Z" style="fill-opacity:0.99;"/><path d="M1673.267,6121.421c13.562,-17.538 27.663,-40.529 67.117,-80.642c37.45,-38.071 70.312,-7.954 44.283,13.092c-95.767,77.442 -122.333,182.471 -154.929,174.658c-42.162,-10.104 25.379,-83.292 43.529,-107.108Z"/><path d="M2620.637,5610c-140.242,10.417 -208.267,22.267 -180.583,-13.175c10.675,-13.667 234.908,-42.75 241.887,-13.704c7.496,31.192 -60.662,26.842 -61.304,26.879Z"/><path d="M1846.808,5453.779c94.321,81.104 123.971,94.233 98.537,110.217c-9.717,6.104 -59.325,40.154 -66.771,33.892c-8.35,-7.017 -2.75,-9.179 -37.637,-131.021c-0.317,-1.104 0.433,-0.971 5.871,-13.088Z" style="fill:#fddba5;"/><path d="M1981.183,6092.483c3.838,2.279 7.675,4.558 11.508,6.833c-2.529,-0.058 -3.808,4.229 -6.333,4.171c0,0 -4.763,-10.125 -5.175,-11.008l0,0.004Z" style="fill:#7f6e53;"/></g><g id="Stuff"><path d="M2064.879,3652.467c3.946,-0.583 3.483,0.625 7.121,-1.05c173.087,-79.633 303.654,28.583 323.792,45.275c8.171,7.467 7.754,7.1 16.279,14.438c2.679,2.475 5.358,4.946 8.037,7.421c1.242,1.238 7.771,7.754 15.292,15.696c7.387,8.412 7.075,8.075 14.7,16.146c15.912,18.375 106.017,138.742 37.45,182.971c-12.996,8.383 -29.304,4.779 -29.742,4.838c-6.637,0.871 -35.792,4.688 -53.075,-64.708c-2.779,-8.654 -2.671,-7.913 -8.358,-15.104c-2.129,-2.9 -4.262,-5.804 -6.392,-8.704c-3.017,-4.846 -6.037,-9.692 -9.054,-14.538c-199.217,-230.425 -417.525,16.129 -386.612,69.55c2.488,2.65 4.979,5.296 7.467,7.946c4.663,3.158 9.325,6.317 13.983,9.475c33.337,27.771 64.017,37.062 139.621,70.183c256.921,112.55 248.771,128.417 271.346,137.504c14.992,6.033 36.633,28.825 38.867,30.554c7.933,7.592 7.396,7.079 15.796,15.071c2.583,2.571 5.167,5.142 7.75,7.713c7.504,7.958 13.692,14.712 14.875,16c2.504,2.608 5.008,5.217 7.512,7.821c5.629,6.438 22.383,25.604 50.996,93.933c-1.062,11.025 -1.133,10.496 2.229,21.696c5.454,99.554 21.238,203.625 -230.504,285.683c-7.742,2.3 -15.483,4.6 -23.229,6.9l-15.242,1.621l-30.833,2.575c-105.792,1.175 -108.938,-1.163 -170.942,-14.863c-7.562,-1.1 -15.125,-2.2 -22.688,-3.296c-42.792,-12.304 -48.721,-11.346 -52.987,-10.658c-4.096,0.663 -2.983,-2.104 -46.817,-22.271c-4.975,-2.596 -9.946,-5.192 -14.921,-7.787c-6.062,-3.483 -16.304,-11.137 -17.679,-12.167c-73.812,-55.158 -87.654,-56.471 -122.808,-163.958c-2.088,-7.767 -4.175,-15.533 -6.263,-23.3c-0.354,-42.938 -10.146,-44.754 9.137,-83.229c12.037,-5.688 10.429,-7.367 21.137,-15.946c7.542,-2.475 15.083,-4.95 22.629,-7.425c36.521,4.163 42.754,-2.167 60.858,29.787c1.483,2.617 8.6,15.179 5.338,37.188c-1.317,8.879 -11.383,76.775 40.171,104.746c9.996,13.008 9.846,12.558 23.979,21.304c62.233,36.154 64.15,30.812 132.921,50.225l15.271,1.554c35.75,5.817 35.604,5 38.671,5.604c10.283,0.592 20.567,1.183 30.854,1.775c16.825,0.058 118.767,0.421 201.892,-58.992c76.229,-54.483 30.758,-117.925 23.254,-148.971c-2.883,-5.004 -5.762,-10.004 -8.646,-15.008c-2.413,-2.7 -4.825,-5.404 -7.238,-8.104c-2.404,-2.567 -15.421,-16.479 -31.15,-31.029c-8.021,-7.438 -7.433,-6.983 -16.6,-13.983c-7.15,-5.483 -7.396,-3.746 -14.321,-9.346c-4.888,-2.908 -9.771,-5.817 -14.658,-8.725c-15.95,-11.987 -16.25,-10.258 -32.554,-20.833c-19.137,-12.413 -240.287,-110.042 -261.312,-119.321c-13.7,-6.05 -121.046,-53.438 -153.442,-107.25c-6.287,-10.442 -50.187,-83.371 -1.133,-152.358c2.675,-4.987 5.346,-9.975 8.021,-14.962c5.537,-9.542 5.737,-8.508 13.083,-17.192c5.412,-6.4 21.933,-28.025 23.812,-30.483c7.488,-7.971 13.8,-14.679 15,-15.954c1.238,-1.242 7.733,-7.775 15.708,-15.271c29.533,-27.5 30.037,-26.842 32.554,-29.279c1.792,-0.575 12.408,-3.971 20.829,-10.896c12.229,-7.196 11.6,-6.858 24.042,-14.062c9.183,-5.846 8.733,-5.55 16.925,-12.167Z" style="fill:#fff;fill-opacity:0.99;"/><path d="M4259.825,3665.35c2.692,2.425 5.387,4.85 8.079,7.275c5.346,6.204 4.954,6.129 12.558,9.388c7.279,57.258 3.783,56.692 0.921,114.529c-2.921,15.783 -3.483,14.875 -4.096,31.275c-15.887,355.154 -88.696,601.45 -133.904,664.454c-2.879,4.896 -5.758,9.792 -8.638,14.683c-15.342,19.833 -13.525,20.733 -30.137,39.271c-2.596,2.525 -5.192,5.05 -7.788,7.575c-7.967,8.279 -7.558,7.854 -14.929,15.883c-29.471,22.871 -28.892,23.267 -39.554,29.621c-5.058,2.558 -10.121,5.113 -15.179,7.671c-22.279,18.117 -120.037,22.629 -130.637,23.121c-11.054,-2.717 -10.708,-3.121 -21.967,-2.058c-12.892,-2.275 -109.825,-19.392 -155.304,-51.567c-4.917,-2.742 -9.829,-5.479 -14.746,-8.221c-29.363,-24.675 -30.271,-22.892 -56.292,-51.742c-5.354,-6.425 -4.537,-6.325 -12.383,-10.004c-5.438,-13.596 -6.462,-12.346 -15.971,-23.133c-2.796,-8.371 -2.592,-7.8 -8.012,-14.808c-7.462,-9.629 -3.742,-11.058 -10.9,-21.504c-23.371,-34.112 -30.267,-75.062 -32.996,-84.904c-0.883,-3.192 -0.829,-2.329 -11.729,-39.7l-2.4,-14.942c-2.933,-10.592 -17.554,-85.379 -22.4,-147.171l-1.846,-23.154c-2.583,-25.058 -3.508,-24.7 -6.667,-85.137l-0.946,-31.096c-7.496,-82.913 -2.167,-180.463 4.283,-301.629c2.208,-41.5 41.308,-62.717 69.496,-48.575c30.583,15.346 41.221,15.863 36.333,79.408c-1.6,9.142 -11,62.767 -0.663,116.021c2.008,117.217 2.546,116.688 3.954,162.208l0.633,23.271c12.863,136.117 12.625,135.638 14.158,146.858l2.258,22.95c27.262,154.992 49.988,197.204 112.354,248.304c4.921,2.908 9.838,5.817 14.758,8.725c25.042,12.925 25.033,11.504 54.846,23c7.817,2.183 15.629,4.363 23.446,6.546c43.433,6.942 78.113,7.021 84.929,7.033c7.858,-2.108 15.717,-4.217 23.575,-6.325c39.888,-25.6 40.971,-24.279 70.379,-61.946c2.854,-4.925 5.708,-9.85 8.562,-14.775c41.863,-78.796 40.6,-79.567 69.287,-217.683c1.867,-7.833 3.733,-15.663 5.604,-23.496c8.337,-70.571 30.296,-146.346 33.213,-247.292c2.546,-11.012 3.092,-10.529 1.971,-22.158c8.179,-52.467 4.683,-52.2 6.517,-109.308c1.4,-7.796 2.8,-15.588 4.196,-23.383c1.046,-71.458 1.062,-71 1.129,-77.175c0.467,-43.212 57.517,-68.463 92.642,-46.183Z" style="fill:#fff;fill-opacity:0.99;"/><path d="M5396.742,3635.554c50.296,-1.304 49.775,-0.904 100.375,-2.788l46.533,-1.054l7.704,-0.142l23.317,-0.071l15.454,0.283c12.921,0.346 25.842,0.692 38.763,1.042c206.279,4.238 293.829,6.675 305.15,45.767c0.308,1.071 3.587,-2.275 8.854,10.75c0.817,2.017 -0.958,30.837 -7.137,44.017c-16.146,34.425 -69.158,27.517 -75.508,26.692c-123.225,-16.054 -123.383,-6.092 -247.058,-14.692l-31.083,-0.617c-155.296,-5.304 -209.308,-9.208 -208.738,13.2c0.258,10.117 10.963,72.238 12.042,78.5c-2.162,15.058 -1.921,14.5 1.767,29.788c1.496,100.95 1.217,100.117 -0.471,201.579c1.821,12.387 4.758,11.958 17.592,9.567c162.446,-2.708 206.671,1.254 224.567,2.858c10.312,0.533 20.621,1.063 30.933,1.596c9.908,0.308 84.929,2.646 123.783,5.617c7.787,0.479 15.579,0.962 23.367,1.442c32.029,8.796 38.642,2.988 56.363,39.283c1.879,3.85 10.608,21.729 -5.271,53.296c-7.567,3.554 -7.033,3.404 -12.867,9.396c-23.304,17.396 -26.408,17.675 -363.5,-4.629c-12.904,-0.392 -25.808,-0.783 -38.712,-1.171c-41.613,0.475 -63.558,-11.367 -57.471,30.104c-1.229,23.183 -3.196,22.633 1.921,45.438c0.833,17.996 1.671,35.988 2.504,53.983c1.621,7.817 3.246,15.637 4.867,23.454c4.821,65.733 6.779,64.712 10.65,131.208c1.604,7.808 3.212,15.613 4.817,23.421c-0.875,5.204 -1.754,10.404 -2.629,15.608c-1.321,7.529 -2.646,15.058 -3.967,22.588c-2.229,6.646 -14.346,20.871 -15.775,22.546c-11.662,2.675 -11.192,2.8 -22.129,8.296c-81.817,-3.321 -65.104,-35.417 -81.196,-147.587c1.371,-11.133 1.188,-10.575 -1.521,-22.113c-4.133,-66.188 -8.008,-65.458 -10.929,-131.279c-1.7,-57.079 -1.629,-56.708 -1.929,-61.988l0.012,-38.658c1.333,-42.758 1.083,-42.092 1.546,-85.208c5.113,-192.042 -0.517,-250.087 -2.613,-271.725c2.233,-15.225 1.929,-14.608 -2.121,-29.792c-1.225,-24.479 -0.671,-23.904 -5.667,-47.65c0.308,-7.254 0.621,-14.508 0.929,-21.762l-0.083,-7.925l1.446,-15.887c2.158,-5.037 20.242,-47.288 55.996,-39.483c7.65,0.85 15.3,1.696 22.95,2.546c10.171,-1.079 20.338,-2.154 30.508,-3.233c7.887,-1.463 15.779,-2.929 23.667,-4.392l0,-0.017Z" style="fill:#fff;fill-opacity:0.99;"/><path d="M4777.796,3624.721l23.279,-1.279c63.65,-8.392 239.429,2.438 254.917,11.725c39.067,23.433 55.708,107.271 -45.904,106.321c-143.625,-1.346 -143.213,-9.071 -286.171,-0.533c-96.896,5.787 -120.583,-17.879 -126.425,31.95c-6.921,59.029 -14.5,295.817 3.308,300.529c7.983,2.113 8.046,1.021 68.762,-0.329l23.208,-1.275c3.683,-0.683 3.079,0.062 46.529,-5.217c10.262,-0.788 20.521,-1.575 30.783,-2.362c45.058,-8.446 123.425,-3.554 224.475,-3.113c10.333,2.017 20.671,4.033 31.004,6.05c23.029,11.013 23.217,10.358 39.075,30.783c18.692,24.075 -0.179,81.917 -54.583,79.683c-193.375,-7.933 -192.954,-1.233 -309.346,4.137c-51.846,2.392 -96.479,-9.846 -94.904,8.625c1.158,13.617 7.808,91.683 11.521,170.463c0.333,7.762 0.663,15.529 0.996,23.292c21.708,191.237 6.767,209.087 -4.675,222.754c-1.904,2.275 -3.021,3.608 -30.483,21.1c-26.233,-4.058 -25.979,-4.142 -29.208,-4.333c-3.296,-1.792 -3.438,-0.008 -6.796,-1.833c-0.733,-0.4 0,0 -8.575,-5.904c-5.767,-5.975 -5.421,-5.7 -13.325,-8.963c-19.475,-70.362 -3.508,-78.433 -13.742,-144.946c-2.267,-14.725 -6.363,-41.35 -13.733,-185.704l-1.292,-23.212c-2.929,-15.817 -5.517,-49.821 -5.846,-54.167l-1.729,-23.158c-1.004,-4.875 -0.263,-4.488 -5.992,-61.946l-1.492,-23.179c-7.575,-56.054 -3.504,-164.029 -3.346,-208.958c1.688,-10.388 3.375,-20.771 5.062,-31.158c8.196,-132.575 14.846,-161.825 56.604,-191.387c26.475,-18.742 106.021,-23.737 153.079,-26.1l23.083,-1.729c4.875,-1.008 15.85,-3.275 61.875,-6.629l0.004,0.004Z" style="fill:#fff;fill-opacity:0.99;"/><path d="M2869.062,3684.4c15.304,1.1 14.725,0.812 29.779,-1.513c350.442,-2.183 474.137,-5.904 491.442,16.754c4.15,5.433 14.967,26.029 16.183,28.338c0.558,1.062 2.608,26.225 -15.288,59.029c-7.796,3.704 -7.142,3.621 -12.996,9.329c-40,27.429 -52.85,0.567 -100.35,-0.246c-180.271,-3.083 -184.062,-4.408 -191.538,8.988c-5.071,9.083 2.133,88.646 -3.346,246.667c-3.767,108.683 -7.192,107.712 -8.617,216.675c-3.683,46.529 -3.696,45.946 0.025,92.667c1.083,84.304 0.125,83.871 6.408,117.233c-0.183,3.508 -1.646,2.763 -1.825,6.217c-0.133,2.533 -0.058,2.346 -0.804,31.679c-4.367,10.308 -3.054,9.992 -4.779,21.521c-1.642,0.517 -10.771,3.388 -18.479,10.983c-10.146,9.996 -11.246,7.329 -24.612,11.829c-49.133,-8.325 -51.492,-13.1 -65.663,-61.45c-4.021,-13.729 0.117,-69.821 -8.038,-115.796c7.483,-36.875 3.258,-37.054 2.317,-146.096c0.375,-10.521 3.583,-100.5 6.767,-131.413l1.117,-23.296c3.396,-84.758 4.767,-92.521 6.171,-100.446c0.542,-15.492 1.088,-30.979 1.629,-46.471c2.071,-52.1 6.217,-130.046 2.287,-131.617c-20.979,-8.379 -21.462,-7.467 -170.712,-6.317c-26.838,0.371 -26.058,-0.146 -52.754,2.762c-84.504,52.354 -127.258,-65.108 -54.592,-94.596c12.533,-5.087 12.454,-3.779 53.025,-10.592c15.517,-1.775 31.033,-3.546 46.55,-5.321c35.942,-1.525 35.358,-1.787 70.696,-5.496l-0.004,-0.008Z" style="fill:#fff;fill-opacity:0.99;"/></g></svg>