<?xml version="1.0" encoding="UTF-8" standalone="no"?><!DOCTYPE svg PUBLIC "-//W3C//DTD SVG 1.1//EN" "http://www.w3.org/Graphics/SVG/1.1/DTD/svg11.dtd"><svg width="100%" height="100%" viewBox="0 0 2481 1749" version="1.1" xmlns="http://www.w3.org/2000/svg" xmlns:xlink="http://www.w3.org/1999/xlink" xml:space="preserve" xmlns:serif="http://www.serif.com/" style="fill-rule:evenodd;clip-rule:evenodd;stroke-linejoin:round;stroke-miterlimit:2;"><g id="Flower"><path d="M1623.331,359.209c-2.363,4.028 -23.951,50.244 -77.899,55.933c-21.75,2.294 -74.116,-7.106 -36.319,-58.938c31.817,-43.631 112.528,-27.959 68.084,-36.472c-11.409,-2.185 -36.752,-14.573 -45.813,-24.365c-62.111,-67.12 40.028,-137.517 87.071,-51.611c3.968,7.246 4.147,-2.927 4.155,-3.354c0.794,-45.019 77.277,-63.835 95.098,-27.583c9.778,19.891 -5.34,46.395 -7.34,49.9c-6.633,11.629 37.861,-23.465 81.202,12.016c29.077,23.803 13.926,96.464 -62.404,97.676c-11.477,0.182 -11.411,-0.07 -22.271,-3.995c-0.606,0.073 -1.211,0.147 -1.817,0.22c1.141,7.704 5.03,5.629 14.229,22.523c32.642,59.946 -15.713,114.184 -71.245,52.998c-27.639,-30.453 -22.334,-80.248 -23.008,-84.668c-0.574,-0.093 -1.149,-0.186 -1.723,-0.278Z" style="fill-opacity:1;"/><path d="M1672.453,316.594c-0.67,-5.786 -0.989,-5.625 -2.591,-11.152c-2.036,-7.025 39.473,-32.892 64.99,-36.277c81.568,-10.82 79.491,86.783 1.658,92.934c-26.071,2.06 -33.837,-6.067 -41.367,-11.198c-16.489,-11.237 -26.74,-13.924 -25.977,-17.684c1.714,-8.444 2.556,-8.165 3.286,-16.623Z" style="fill:#e37bb8;"/><path d="M1597.284,315.481c-10.024,-2.171 -54.329,-10.406 -70.589,-43.341c-14.648,-29.671 4.957,-48.336 19.138,-54.85c50.277,-23.097 84.673,65.489 77.633,73.415c-6.254,7.041 -11.023,3.054 -19.717,22.567c-1.172,2.63 -1.957,1.602 -6.464,2.21Z" style="fill:#e37bb8;"/><path d="M1635.58,389.097c-0.278,-2.803 -3.297,-33.229 0.876,-35.196c9.141,-4.307 9.597,-2.884 18.467,-7.601c9.163,-4.873 70.826,40.184 64.294,90.846c-4.19,32.499 -32.756,24.421 -43.418,17.886c-37.289,-22.857 -39.579,-62.472 -40.219,-65.934Z" style="fill:#e37bb8;"/><path d="M1532.473,404.908c-13.574,-1.422 -30.996,-3.76 -25.629,-23.236c4.253,-15.434 17.638,-31.359 33.43,-38.168c58.015,-25.013 81.827,0.329 76.875,7.944c-1.398,2.15 -2.91,4.226 -4.288,6.39c-25.463,39.983 -45.455,46.928 -80.388,47.07Z" style="fill:#e37bb8;"/><path d="M1631.886,266.592c-1.541,-16.224 -5.104,-47.378 30.757,-60.492c20.579,-7.525 50.898,-0.972 48.099,25.141c-4.67,43.563 -44.43,55.861 -47.666,60.062c-3.751,4.868 -4.28,-2.721 -19.263,-4.669c-9.072,-1.18 -8.957,-3.375 -11.926,-20.042Z" style="fill:#e37bb8;"/><path d="M1641.918,295.581c7.566,0.749 25.256,9.171 19.255,30.519c-2.569,9.138 -20.986,18.019 -24.927,16.977c-9.835,-2.6 -9.896,-2.404 -10.606,-2.924c-22.602,-16.567 -13.659,-41 16.277,-44.572Z" style="fill:#feb16f;"/></g><g id="Cloud"><path d="M1893.531,1002.624c-0.01,-1.768 0.336,-1.911 -0.97,-3.072c-12.267,-10.905 -14.945,-62.575 33.229,-56.727c12.111,1.47 17.341,13.35 19.301,1.217c5.405,-33.46 42.444,-56.853 63.95,-47.495c29.229,12.718 23.782,56.389 23.803,56.866c0.192,4.391 2.33,1.794 6.495,0.71c21.137,-5.503 44.945,1.832 53.139,21.555c11.397,27.435 -8.391,41.934 -3.251,44.339c30.49,14.263 31.848,47.214 14.721,61.108c-27.298,22.145 -53.625,3.697 -63.54,-2.674c-7.533,-4.84 -7.625,-0.475 -9.648,4.261c-13.573,31.779 -50.102,47.355 -76.727,22.365c-21.024,-19.733 -8.347,-36.161 -22.509,-32.86c-69.949,16.302 -67.539,-52.155 -37.994,-69.593Z" style="fill-opacity:1;"/><path d="M2076.251,1082.043c-29.533,-1.89 -43.482,-29.588 -50.195,-13.796c-1.561,3.673 -10.938,35.922 -38.877,39.32c-10.861,1.321 -33.377,-5.568 -38.258,-32.01c-0.238,-1.288 -2.593,-14.043 -6.149,-15.174c-4.248,-1.352 -50.713,16.745 -58.031,-12.455c-1.888,-7.533 1.725,-29.8 10.004,-34.741c2.919,-1.742 14.348,-4.611 12.406,-15.401c-1.476,-8.2 -9.002,-2.037 -11.158,-9.234c-10.915,-36.438 27.468,-48.494 46.448,-24.082c11.812,15.193 12.423,0.921 12.337,-0.063c-0.097,-1.11 -6.155,-25.829 14.453,-45.795c28.335,-27.451 58.202,-14.863 53.784,36.504c-0.098,1.143 -1.053,12.241 1.607,14.245c5.499,4.143 18.984,-15.221 46.141,-3.365c10.047,4.386 25.778,26.61 6.848,48.033c-14.452,16.355 4.969,11.952 13.188,17.553c16.598,11.309 25.944,45.679 -14.55,50.461Z" style="fill:#a5c9d9;"/><path d="M2051.15,1200.905c-24.85,27.055 -29.807,37.167 -33.671,28.563c-6.233,-13.88 23.041,-43.57 15.817,-45.527c-8.836,-2.393 -24.791,4.148 -21.128,-17.146c7.927,-46.078 8.381,-47.008 12.198,-48.098c2.567,-0.733 2.532,-0.321 33.351,0.98c18.179,0.767 -6.309,31.675 1.584,34.449c7.006,2.462 33.624,2.908 12.617,24.968c-1.661,1.745 -20.748,21.788 -20.768,21.81Z" style="fill-opacity:1;"/><path d="M1917.534,1165.611c-18.847,21.565 -27.724,37.288 -31.042,27.198c-1.789,-5.439 22.613,-49.41 15.584,-51.188c-10.174,-2.574 -26.351,9.151 -21.073,-15.89c2.737,-12.986 2.521,-12.867 4.226,-25.875c0.979,-7.469 7.253,-8.569 36.855,-4.727c18.769,2.436 0.045,18.326 7.592,21.263c7.938,3.089 27.734,2.129 12.014,21.693c-7.119,8.86 -22.18,25.362 -24.155,27.526Z" style="fill-opacity:0.99;"/><path d="M2046.55,1128.667c6.434,0.892 8.392,-0.341 7.672,2.72c-2.514,10.685 -15.199,27.056 -0.166,31.159c9.917,2.706 17.303,2.662 10.922,9.566c-11.262,12.184 -11.321,11.915 -21.93,24.665c-14.658,17.615 0.669,-7.546 1.009,-8.104c14.614,-23.991 -24.416,-8.19 -22.602,-20.052c6.111,-39.964 6.853,-41.205 10.231,-41.03c1.191,0.062 1.101,0.08 14.864,1.076Z" style="fill:#fbdaa5;"/><path d="M1911.049,1159.224c-0.315,-0.829 -1.593,-1.024 -1.909,-1.853c-0.164,-0.432 0.022,-0.451 2.336,-5.443c14.155,-30.537 -16.978,-16.139 -21.046,-20.356c-1.472,-1.526 -0.759,-1.864 3.657,-26.245c0.969,-5.353 28.203,-4.375 25.422,3.521c-6.044,17.16 3.333,14.856 14.106,18.25c5.271,1.661 -2.229,7.741 -22.566,32.125Z" style="fill:#fddba5;"/></g><g id="Cat"><path d="M577.523,963.516c31.298,-33.926 26.556,18.025 41.508,34.462c35.502,39.027 5.462,124.449 -55.245,145.093c-34.733,11.811 -89.906,-0.597 -125.957,-23.508c-35.272,-22.416 -33.455,-85.972 -14.896,-106.624c9.6,-10.683 4.057,-12.495 4.403,-28.197c1.145,-52.056 30.871,-11.854 42.022,-0.387c4.426,4.551 20.503,-9.284 36.759,-9.898c31.77,-1.199 55.664,8.226 57.261,6.353c7.316,-8.58 6.79,-8.871 14.145,-17.294Z" style="fill-opacity:1;"/><path d="M532.056,1138.023c-26.691,-2.661 -42.512,-2.875 -77.627,-20.292c-53.983,-26.775 -33.407,-92.364 -22.384,-101.138c13.332,-10.612 0.83,-28.883 6.508,-45.204c2.356,-6.773 25.054,20.441 25.147,20.613c5.843,10.783 9.032,2.898 27.809,-4.579c11.983,-4.772 41.753,-6.454 68.211,5.154c9.421,4.133 9.707,-6.98 28.288,-26.094c7.715,-7.936 10.889,7.164 15.006,21.871c5.511,19.691 14.041,15.681 19.205,35.573c9.48,36.517 -15.719,73.918 -16.78,75.286c-30.97,39.936 -59.66,38.239 -73.383,38.811Z" style="fill:#feb16f;"/><path d="M519.061,1074.626c32.565,-5.973 13.857,15.673 12.66,17.585c-2.883,4.604 5.22,11.007 9.43,12.031c19.234,4.681 14.44,-25.604 17.516,-27.688c9.531,-6.459 9.502,19.273 4.636,26.818c-12.819,19.88 -31.493,6.27 -33.692,4.668c-3.726,-2.716 -6.561,1.556 -10.69,2.181c-33.556,5.081 -36.887,-30.009 -27.724,-30.978c7.808,-0.826 4.985,3.326 6.331,11.182c2.661,15.534 26.691,14.198 22.095,1.756c-1.645,-4.452 -25.618,-17.335 -0.561,-17.554Z" style="fill:#010100;"/><path d="M642.431,1080.321c13.311,-6.667 41.023,8.39 44.781,11.145c2.975,2.181 4.832,13.345 -8.198,5.921c-27.605,-15.729 -42.05,-4.704 -36.583,-17.065Z" style="fill-opacity:1;"/><path d="M638.716,1056.183c13.974,-8.276 39.098,-11.128 41.704,-8.215c6.106,6.828 -11.697,8.603 -12.939,8.727c-16.04,1.599 -34.906,14.596 -28.764,-0.512Z" style="fill-opacity:0.99;"/><path d="M406.645,1074.578c-3.06,2.072 -42.512,12.275 -41.262,1.187c0.337,-2.986 1.131,-4.118 36.716,-7.927c5.283,-0.565 5.198,1.41 4.545,6.74Z" style="fill-opacity:1;"/><path d="M401.601,1039.473c10.792,8.71 -0.116,10.056 -3.218,8.458c-27.09,-13.953 -33.021,-14.914 -27.401,-19.966c4.162,-3.741 17.879,4.905 30.62,11.509Z" style="fill-opacity:1;"/><path d="M542.492,1045.917c0.382,-1.299 4.355,-14.803 13.383,-10.363c15.356,7.551 -11.637,29.411 -13.383,10.363Z"/><path d="M482.79,1045.929c0.165,-0.912 2.411,-13.363 10.232,-5.44c7.431,7.528 -5.17,18.728 -10.232,5.44Z"/></g><g id="Butterfly"><path d="M935.018,240.351c0.545,0.069 1.091,0.139 1.636,0.208c0.566,-0.09 0.575,1.377 1.142,1.287c1.038,-0.164 -1.593,-9.588 9.72,-29.34c28.819,-50.316 85.198,-34.299 71.373,31.846c-5.819,27.839 -26.736,43.394 -21.226,44.832c3.996,1.043 15.646,-1.036 29.543,16.567c19.13,24.231 -12.574,52.6 -42.292,44.25c-5.407,-1.519 -8.43,-3.73 -7.933,1.877c0.202,2.282 3.407,38.45 -13.631,25.189c-3.658,-2.847 -7.454,-12.292 -9.381,-4.603c-11.194,44.676 -52.999,21.564 -55.49,-2.115c-1.22,-11.596 4.699,-22.704 1.146,-22.522c-24.833,1.273 -25.599,5.007 -48.492,-4.895c-63.619,-27.516 -49.441,-123.635 31.383,-92.344c18.382,7.117 34.523,23.718 34.995,17.632c1.206,-15.542 -59.734,-96.306 -71.31,-68.328c-4.995,12.072 -21.935,-7.468 -14.97,-16.637c7.92,-10.426 10.145,2.065 16.346,1.992c12.293,-0.145 23.597,-4.634 56.828,39.079c13.195,17.357 15.76,31.388 22.537,24.965c5.447,-5.163 -11.092,-19.196 -22.119,-92.271c-4.877,-32.324 27.663,-26.468 23.053,-11.015c-1.142,3.827 -5.149,6.963 -9.684,5.034c-6.69,-2.846 -8.105,4.576 16.826,89.314Z" style="fill:#000600;fill-opacity:1;"/><path d="M884.685,339.615c-3.705,-0.172 -30.336,-1.408 -44.138,-14.195c-17.122,-15.862 -21.079,-34.619 -19.074,-45.957c9.588,-54.215 93.419,-6.429 100.833,10.943c12.427,29.118 9.483,30.127 24.707,63.638c1.55,3.412 -3.865,21.987 -5.541,25.292c-8.317,16.399 -26.245,2.739 -26.978,2.097c-15.511,-13.559 2.026,-39.75 2.264,-40.577c1.08,-3.75 -2.563,-7.136 -6.173,-6.256c-12.866,3.136 -12.593,3.961 -25.899,5.015Z" style="fill:#6db994;"/><path d="M996.067,341.557c-9.465,-0.539 -9.023,-2.582 -18.593,-3.198c-5.88,-0.379 1.956,-6.292 -27.329,-68.395c-2.995,-6.35 2.913,-7.94 -1.825,-13.271c-17.1,-19.241 42.324,-100.674 60.887,-45.94c13.836,40.796 -32.961,79.251 -30.111,87.391c3.649,10.42 18.58,-10.388 38.679,11.495c6.99,7.61 11.684,28.204 -21.709,31.917Z" style="fill:#6db994;"/><path d="M967.17,351.77c0.001,0.014 2.214,13.028 -0.824,13.061c-7.05,0.078 -38.882,-79.27 -38.264,-90.817c0.436,-8.149 -0.599,-16.701 4.999,-13.271c1.275,0.781 9.217,12.107 22.368,46.49c6.472,16.92 11.033,40.917 11.721,44.537Z" style="fill:#feb16f;"/><path d="M872.622,388.439c15.412,20.496 33.303,16.807 25.16,24.782c-8.381,8.208 -46.437,-26.57 -33.407,-33.326c4.793,-2.485 6.923,5.344 8.247,8.544Z" style="fill-opacity:1;"/><path d="M1048.75,295.453c-0.647,-0.545 -7.212,-5.123 -4.23,-8.375c11.016,-12.017 27.121,32.693 14.833,35.744c-10.3,2.557 0.332,-13.05 -10.603,-27.369Z" style="fill-opacity:0.99;"/><path d="M854.255,421.466c-11.892,-10.523 0.639,-10.584 2.15,-9.515c17.373,12.284 18.31,11.913 18.221,14.132c-0.066,1.67 -2.204,9.477 -20.371,-4.617Z" style="fill-opacity:1;"/><path d="M1071.257,285.9c-2.854,-2.887 -4.301,-2.745 -2.85,-6.428c4.095,-10.396 18.985,9.856 14.043,18.026c-4.982,8.237 -9.576,-8.871 -11.193,-11.598Z" style="fill-opacity:0.99;"/></g><g id="Heart"><path d="M1588.805,1464.694c2.456,-0.023 2.311,-0.329 3.543,-2.506c9.027,-15.945 46.856,-51.294 74.927,-27.59c18.657,15.755 4.827,66.358 -0.861,81.118c-13.847,35.933 -59.934,79.443 -77.035,91.831c-19.543,14.157 -23.702,5.019 -33.796,-12.675c-47.962,-84.081 -71.708,-95.956 -68.638,-136.775c2.809,-37.34 30.16,-41.381 34.461,-42.017c48.087,-7.105 63.681,39.089 67.399,48.613Z" style="fill-opacity:1;"/><path d="M1667.072,1461.74c-2.848,45.219 -12.096,72.487 -69.501,126.424c-21.063,19.791 -24.239,16.097 -25.776,14.309c-4.991,-5.805 -1.453,-8.111 -51.298,-80.78c-2.754,-4.015 -37.99,-49.058 -17.439,-83.874c11.801,-19.991 63.021,-23.427 79.928,38.663c0.877,3.222 -0.513,32.018 10.365,18.419c4.461,-5.577 -7.223,-19.326 23.256,-45.344c19.067,-16.277 31.85,-13.037 34.706,-12.313c17.653,4.474 15.654,23.215 15.758,24.497Z" style="fill:#f78885;"/></g><g id="Stampy"><path d="M1614.07,626.919c1.868,0.477 3.735,0.955 5.603,1.432c14.334,3.644 14.639,2.636 27.473,9.929c4.059,2.307 10.559,8.012 11.425,8.773c1.956,1.957 1.836,1.837 3.709,3.691c0.626,0.61 1.251,1.22 1.877,1.829c1.671,2.146 1.767,1.824 3.459,3.928c0.828,1.029 0.746,0.864 1.713,1.982c0.688,1.157 1.375,2.313 2.063,3.47c3.504,4.742 7.234,16.887 7.703,18.413l0.552,3.595c2.375,9.223 0.96,19.833 0.867,22.369c-0.462,1.874 -0.924,3.747 -1.386,5.621c-22.324,72.545 -125.877,64.834 -126.311,64.839c-5.614,1.552 -3.045,3.575 -2.275,9.374c0.066,16.839 0.064,16.692 0.708,33.381c0.163,3.708 0.325,7.415 0.488,11.123c0.892,6.752 1.182,6.598 2.267,13.254c0.831,5.104 -1.242,9.958 -1.583,10.758c-1.544,1.938 -2.944,3.644 -3.203,3.958c-1.507,1.254 -1.49,1.163 -2.276,2.996l-3.408,0.543c-2.467,0.034 -4.933,0.067 -7.4,0.101c-10.793,-5.357 -10.133,-7.39 -11.444,-29.666l-0.252,-5.582c-0.845,-8.503 -1.647,-39.257 -1.736,-42.673c-0.045,-2.485 -0.091,-4.97 -0.136,-7.455c-0.227,-11.143 -0.212,-10.934 -0.155,-22.284c0.003,-6.186 0.005,-12.372 0.008,-18.558c-0.231,-27.057 -0.775,-26.861 -1.541,-53.783c-0.081,-3.711 -0.162,-7.422 -0.243,-11.134c-2.011,-6.346 -3.533,-5.34 -6.87,-11.137c-0.286,-2.342 -0.571,-4.684 -0.857,-7.026c9.686,-14.282 8.833,-14.909 14.107,-18.684c4.665,-0.675 4.501,-0.602 9.131,-0.35c3.217,-0.089 3.146,0.263 5.373,-0.523c38.676,-13.652 68.982,-6.764 72.552,-6.504l-44.544,27.03c-1.196,0.093 -5.942,0.463 -14.805,2.385c-1.881,0.512 -3.763,1.025 -5.644,1.537c-5.988,3.313 -2.791,5.26 -1.544,28.036c2.188,4.306 1.095,4.47 1.213,9.328c0.458,25.161 0.52,24.966 0.732,50.084c0.049,5.752 8.611,4.416 31.142,3.403c0.638,-0.471 0.379,-1.618 7.511,-1.138l5.525,-0.466c1.881,-0.482 3.761,-0.964 5.642,-1.446c2.22,-0.802 21.439,-4.611 33.683,-14.8c0.635,-0.616 1.27,-1.232 1.904,-1.848c1.15,-0.708 2.3,-1.416 3.45,-2.124c0.575,-0.971 -0.241,-2.398 0.334,-3.369c0.296,-0.5 1.294,0.245 1.738,-0.13c0.767,-0.649 -0.432,-0.92 0.242,-1.544c0.704,-0.652 0.919,0.469 1.685,-0.241c0.63,-0.618 1.26,-1.237 1.889,-1.855c21.703,-23.893 8.796,-74.767 -69.381,-66.281c-1.772,0.156 -3.544,0.312 -5.316,0.469l44.544,-27.03Z" style="fill:#008e57;fill-opacity:0.99;"/><path d="M1147.983,669.44c2.506,4.691 2.149,4.837 2.416,5.211c1.068,2.706 14.648,29.397 15.943,31.943c0.752,1.478 9.369,18.415 9.403,18.47c7.756,12.709 29.577,83.462 29.585,83.501c2.25,10.418 4.59,9.6 6.32,20.174c1.016,6.209 3.852,5.067 5.005,11.318c3.959,21.461 -16.671,17.496 -17.962,17.736c-2.024,0.377 -1.722,-1.73 -2.572,-2.478c-9.717,-8.546 -6.055,-12.434 -8.614,-13.598c-1.744,-0.793 -2.534,-7.997 -3.967,-11.019c-0.584,-1.866 -1.169,-3.731 -1.753,-5.597c-0.512,-1.262 -1.023,-2.523 -1.535,-3.785l-0.264,-1.802c-0.504,-1.256 -1.007,-2.511 -1.511,-3.767c-0.292,-1.328 -2.926,-13.298 -4.829,-16.302c-2.946,-4.65 -29.8,-1.218 -31.212,-1.13c-8.811,-1.833 -8.715,-0.146 -12.744,0.297c-39.844,0.174 -53.261,0.288 -57.451,0.933c-1.549,0.239 -5.675,3.086 -5.785,3.126c-1.151,0.722 -2.302,1.443 -3.453,2.165c-1.318,2.044 -1.297,1.85 -1.318,2.044c-0.631,5.922 -1.71,5.49 -4.015,10.99c-0.437,1.042 -3.617,8.632 -5.201,13.137c-4.739,13.474 -1.381,14.341 -5.718,22.288c-5.868,10.753 -11.176,8.138 -19.049,8.428c-8.373,0.309 -9.033,-14.649 -9.098,-16.129c0.586,-1.845 1.171,-3.691 1.757,-5.536c0.86,-1.77 0.713,-1.683 0.524,-3.513c-0.148,-1.437 2.061,-3.377 2.363,-4.226c6.029,-16.956 5.771,-16.948 12.985,-33.397l0.834,-3.398c2.281,-4.58 1.098,-4.947 3.578,-9.338c1.201,-2.699 1.279,-2.463 1.951,-5.508c2.453,-4.771 19.656,-53.101 21.728,-57.761c4.839,-10.886 2.526,-11.517 3.129,-12.337c1.509,-2.053 1.775,-1.768 2.788,-4.235c1.155,-2.814 0.849,-2.805 1.89,-5.556c2.465,-6.513 1.655,-6.573 4.125,-12.877c5.596,-14.282 6.056,-13.948 6.257,-15.251c0.266,-1.717 1.109,-7.167 7.712,-20.308c1.718,-3.42 8.221,-37.436 27.938,-26.978c16.195,8.59 11.799,12.731 29.821,44.064l-33.349,-6.851c-2.117,1.001 -2.441,0.874 -2.699,3.219c-0.877,7.973 -13.082,40.523 -13.203,40.759c0.219,1.899 0.237,1.866 -0.843,3.413c-0.599,1.278 0.31,1.553 -5.769,16.678c-4.18,10.401 -5.453,15.197 -5.813,16.553c-0.967,3.643 -7.509,19.197 -8.204,20.849c-4.067,9.668 -1.164,9.988 -0.362,10.076c0.773,0.085 0.624,-0.325 9.533,-1.898c2.385,-0.163 4.77,-0.326 7.156,-0.489c11.379,-0.407 11.179,-0.372 22.516,-1.43l1.681,-0.568c3.714,-1.509 3.791,-1.371 7.28,0.379l1.934,0.13c1.844,0.156 3.688,0.313 5.531,0.469c3.787,-0.868 3.69,-0.866 7.441,-0.07c8.816,-0.087 24.056,1.891 22.154,-4.873c-0.29,-1.033 -0.342,-0.913 -4.495,-12.635c-0.217,-0.613 -2.384,-0.625 -2.108,-2.573c0.178,-1.257 0.457,-3.234 -5.949,-14.709c-0.428,-0.767 -0.027,-0.844 -0.54,-1.552c-0.82,-1.131 -0.655,-1.066 -1.312,-2.135c-0.617,-1.237 -1.234,-2.475 -1.851,-3.712c-4.304,-5.807 -2.251,-6.781 -6.232,-12.661c-3.482,-5.143 -10.594,-22.374 -11.381,-24.02c-0.381,-0.796 -10.847,-19.83 -12.726,-27.909l-1.738,-1.291l33.349,6.851Z" style="fill:#008e57;fill-opacity:0.99;"/><path d="M1434.457,641.724c0.551,-0.739 4.771,-6.408 9.102,-7.066c15.815,-2.404 18.398,15.787 18.689,17.833c0.136,4.336 0.273,8.673 0.409,13.009c5.049,37.399 6.718,73.39 7.015,79.791l0.292,7.445c0.852,11.171 1.417,23.881 1.509,25.959l0.459,5.532c0.758,3.535 0.766,3.51 0.818,3.818c0.469,2.766 0.129,2.695 0.6,5.476l0.261,3.711c1.756,7.114 2.055,27.418 2.09,29.808c-0.33,5.774 -0.934,5.734 0.77,11.119c-0.036,1.577 -0.327,14.445 -10.916,16.423c-13.459,2.514 -16.511,-9.088 -17.906,-11.084c0.172,-1.782 0.343,-3.565 0.515,-5.347c-1.495,-11.167 0.641,-11.003 0.389,-22.232l-0.404,-5.546c-3.849,-18.922 -4.977,-47.829 -5.139,-52.006c-0.077,-2.478 -0.154,-4.955 -0.232,-7.433c-0.836,-8.227 -1.681,-27.272 -1.787,-29.646c-0.215,-3.834 -0.1,-3.7 -1.005,-7.519l-0.631,-7.36l-0.442,-5.541c-0.709,-3.704 -0.732,-11.1 -0.948,-11.383c-1.946,-2.554 -3.866,2.22 -5.227,4.273c-9.537,14.382 -10.072,13.782 -10.868,15.035c-1.567,2.468 -19.18,30.216 -19.649,30.807c-1.298,1.663 -1.287,1.555 -1.981,3.577c-0.551,0.678 -1.101,1.355 -1.652,2.033c-0.676,1.184 -1.352,2.368 -2.027,3.552c-4.167,5.371 -3.178,5.917 -7.33,11.256c-0.68,1.177 -1.36,2.354 -2.04,3.531c-0.535,0.691 -1.07,1.381 -1.604,2.072c-0.693,1.157 -1.385,2.315 -2.078,3.472c-1.252,1.494 -1.398,1.14 -2.629,2.685c-1.407,1.509 -1.212,1.459 -4.758,6.577c-0.651,0.665 -5.772,5.893 -9.162,7.159c-15.596,5.82 -23.267,-12.95 -27.178,-20.019c-0.651,-1.2 -1.302,-2.401 -1.954,-3.601c-3.108,-4.194 -1.903,-4.817 -7.317,-11.308c-0.715,-1.152 -1.429,-2.304 -2.144,-3.456c-0.755,-1.138 -1.51,-2.275 -2.266,-3.413c-1.157,-1.606 -1.017,-1.618 -2.843,-2.452c-0.463,-1.322 -1.071,-3.059 -9.868,-14.465c-23.765,-30.81 -31.461,-49.38 -32.006,-49.515c-0.975,-0.242 -1.696,1.637 -2.67,1.395c3.187,27.448 -2.305,66.459 2.238,98.483c-0.47,3.684 -0.402,3.53 0.456,7.166c0.313,12.329 0.251,12.191 1.459,24.367c-0.658,3.664 -0.58,3.572 0.328,7.152c-0.188,36.22 3.369,41.053 -8.831,48.071c-4.571,0.172 -4.426,0.352 -9.112,-0.005c-4.09,-2.368 -4.3,-1.966 -7.127,-5.662c-0.62,-1.765 -1.24,-3.529 -1.86,-5.294c-0.452,-18.846 -0.289,-18.676 -1.341,-37.325c0.246,-3.661 0.14,-3.547 -0.429,-7.195c-0.354,-11.419 -0.307,-11.219 -1.395,-22.552c0.39,-2.746 0.321,-2.577 -0.344,-5.292c-0.249,-7.867 -2.161,-68.302 0.681,-98.382c0.103,-3.716 0.206,-7.431 0.31,-11.147c0.735,-16.237 0.516,-51.729 31.893,-27.872c0.858,0.828 5.022,5.216 5.455,5.673c15.07,17.46 32.784,48.156 45.964,63.497c0.871,2.004 0.839,1.806 2.193,3.382c1.725,2.094 1.639,1.991 3.406,4.011c0.845,2.026 0.817,1.826 2.145,3.422c3.842,4.657 3.345,4.911 7.186,9.509c0.711,1.15 1.422,2.301 2.132,3.451c4.995,6.625 8.109,19.415 13.104,7.333c0.696,-1.179 1.392,-2.358 2.088,-3.537c0.288,-0.598 2.031,-4.216 4.18,-7.166c13.765,-18.896 15.272,-25.015 23.538,-35.627c0.719,-1.146 1.438,-2.292 2.158,-3.438c5.542,-6.503 18.917,-26.385 20.202,-28.064c1.327,-1.653 1.302,-1.483 2.085,-3.507c0.565,-0.673 1.129,-1.345 1.694,-2.018c1.342,-1.656 1.283,-1.557 1.952,-3.606c1.716,-1.987 1.58,-1.827 1.716,-1.987c0.568,-0.67 -0.122,-0.801 0.448,-1.578c2.794,-3.807 2.447,-3.822 5.176,-7.689c0.665,-1.176 1.33,-2.352 1.995,-3.528Z" style="fill:#008e57;fill-opacity:0.99;"/><path d="M760.385,627.757l5.553,0.48l3.639,0.47c1.857,0.554 3.714,1.109 5.57,1.663c7.537,3.633 14.468,3.28 29.932,18.257c2.148,2.272 4.901,5.332 5.322,5.8c2.593,3.055 2.521,2.972 5.206,5.893c0.757,2.023 0.749,1.909 2.054,3.481c4.163,5.417 7.381,13.393 7.878,14.626c13.575,33.649 -21.272,36.197 -22.129,18.634c-0.349,-7.149 -0.197,-7.16 -3.684,-13.283c-0.715,-1.161 -1.43,-2.322 -2.145,-3.483c-1.695,-2.076 -1.614,-1.982 -3.433,-4c-0.767,-1.101 -1.535,-2.203 -2.302,-3.304c-4.084,-4.484 -3.834,-4.631 -8.931,-7.844c-17.725,-13.839 -31.294,-10.346 -39.263,-8.827c-1.275,0.465 -2.549,0.93 -3.824,1.396c-4.693,1.648 -15.691,3.854 -26.254,12.948c-2.006,0.877 -1.838,0.865 -3.384,2.245c-0.632,0.713 -6.806,7.671 -7.444,9.296c-0.629,1.233 -1.258,2.465 -1.887,3.698c-1.855,3.796 -2.032,6.822 -2.068,7.438c-1.183,20.227 7.564,20.902 9.208,24.556c2.522,5.606 25.994,11.351 28.386,11.937c32.212,7.884 55.848,10.745 81.105,38.114c0.717,1.142 1.434,2.284 2.151,3.426c8.04,11.232 8.95,22.041 9.122,24.094c2.515,29.893 -15.86,43.279 -18.727,45.929c-1.992,0.843 -1.796,0.814 -3.401,2.153c-0.679,0.544 -1.358,1.088 -2.037,1.632c-1.179,0.681 -2.357,1.362 -3.536,2.043c-2.231,1.591 -5.305,3.008 -5.787,3.23c-33.867,15.615 -79.409,11.707 -102.061,-0.652c-7.516,-4.101 -21.029,-12.799 -26.644,-43.502c0.07,-1.747 0.139,-3.494 0.209,-5.241c0.013,-8.278 -1.563,-9.271 4.569,-14.761c1.497,-1.341 7.347,-4.204 11.163,-2.439c17.568,8.129 7.399,15.293 16.276,34.065c0.735,1.155 1.47,2.311 2.204,3.466c0.599,0.636 1.198,1.273 1.797,1.909c6.774,5.704 46.334,19.711 83.807,0.395c2.114,-0.804 1.91,-0.78 3.563,-2.064c0.811,-0.676 8.414,-7.015 9.204,-9.456c0.506,-1.564 4.062,-12.559 0.173,-20.544c-0.633,-1.236 -1.266,-2.471 -1.899,-3.707c-0.533,-0.699 -1.067,-1.398 -1.6,-2.097c-0.786,-1.105 -1.571,-2.209 -2.357,-3.314c-17.86,-14.785 -19.122,-12.493 -40.715,-20.7c-1.873,-0.545 -3.746,-1.091 -5.619,-1.636c-2.087,-0.568 -21.239,-5.779 -26.213,-6.606c-58.576,-9.746 -76.016,-91.229 3.828,-119.889c19.368,-6.952 19.598,-6.233 35.425,-5.926Z" style="fill:#008e57;fill-opacity:0.99;"/><path d="M1714.35,635.936l5.562,-0.261c5.454,1.825 6.606,0.685 16.269,13.442c0.652,1.194 1.303,2.389 1.955,3.583c0.555,0.737 4.942,8.639 5.362,9.395c12.445,22.417 13.584,21.635 24.273,40.804c0.652,1.201 1.305,2.403 1.957,3.604c1.499,1.989 6.394,13.949 12.837,22.44c0.686,1.178 1.371,2.356 2.057,3.535c4.706,5.935 3.743,6.437 8.337,12.343c7.433,9.555 7.933,-0.85 21.787,-19.779c0.681,-1.184 1.363,-2.367 2.044,-3.551c0.518,-0.694 1.036,-1.388 1.554,-2.082c0.7,-1.173 1.401,-2.346 2.101,-3.519c0.554,-0.92 4.406,-7.317 7.279,-11.274c0.686,-1.179 1.372,-2.357 2.058,-3.536c0.532,-0.933 3.835,-6.727 7.183,-11.334c0.688,-1.177 1.376,-2.353 2.064,-3.53c4.496,-7.356 23.425,-32.7 24.575,-37.008c2.514,-0.956 2.339,-1.15 3.191,-3.861c1.373,-1.612 4.868,-9.4 20.046,-5.63c1.355,1.283 4.815,5.104 5.225,5.556c3.137,7.457 -0.762,13.715 -1.388,14.718c-1.242,1.993 -7.881,12.646 -16.921,23.988c-1.326,1.644 -1.301,1.447 -2.106,3.461c-6.634,7.734 -5.492,8.325 -9.1,13.214c-0.67,1.187 -1.341,2.374 -2.011,3.561c-0.379,0.652 -2.802,3.838 -3.052,4.167c-4.072,5.355 -19.82,35.726 -39.297,59.178c-8.231,9.91 -4.686,11.161 -5.021,24.097c0.14,3.827 0.272,3.714 0.981,7.509c0.211,3.074 0.422,6.148 0.633,9.222c0.426,1.878 0.853,3.756 1.279,5.634c0.249,3.035 0.348,2.917 1.259,5.91c-0.285,2.686 -0.259,2.543 0.49,5.231c0.229,3.072 0.457,6.145 0.686,9.217c0.39,2.489 0.78,4.979 1.17,7.468c0.675,16.891 -0.471,16.811 -0.228,18.251c0.017,0.103 -3.406,7.115 -12.324,7.851c-15.359,1.267 -14.987,-18.617 -15.822,-26.37c0.272,-2.764 0.145,-2.673 -0.504,-5.319c-0.941,-13.606 -1.753,-13.371 -3.189,-22.562c0.265,-2.655 0.226,-2.519 -0.425,-5.272c-0.251,-14.03 0.023,-13.9 -0.069,-27.862c-0.019,-2.91 -4.713,-5.959 -12.957,-15.216c-0.851,-1.94 -0.816,-1.755 -2.201,-3.38c-1.712,-2.129 -1.641,-2.038 -3.475,-3.985c-1.098,-3.328 -1.564,-2.89 -3.66,-5.501c-9.519,-15.702 -9.806,-15.362 -18.609,-31.509c-0.652,-1.2 -1.304,-2.4 -1.955,-3.6c-2.341,-3.598 -10.17,-17.175 -11.037,-18.679c-0.65,-1.202 -1.3,-2.403 -1.95,-3.605c-1.805,-2.45 -8.331,-15.468 -9.015,-16.833c-8.195,-16.347 -7.878,-16.469 -8.658,-17.851c-1.101,-1.95 -18.55,-14.507 0.758,-24.474Z" style="fill:#008e57;fill-opacity:0.99;"/><path d="M919.908,629.807c9.375,0.01 9.243,0.01 18.642,-0.011c27.897,0.139 27.779,0.15 55.597,0.001c4.957,-0.075 9.914,-0.151 14.871,-0.226l1.878,-0.012c2.423,0.345 4.847,0.689 7.27,1.034c4.689,1.169 8.324,8.279 8.787,9.184c-0.769,4.471 -0.729,4.365 -1.407,8.962c-6.303,10.611 -7.905,10.106 -20.191,8.978c-5.524,-1.618 -5.505,-0.878 -11.146,-0.168l-3.742,0.068c-4.677,-0.452 -4.564,-0.455 -9.271,0.027c-23.955,0.001 -33.969,-0.911 -34.889,2.442c-0.313,1.14 0.771,90.053 2.682,98.398c0.063,0.275 1.09,18.536 1.18,20.148c0.319,1.896 0.638,3.791 0.957,5.687c0.183,2.462 0.367,4.923 0.55,7.385c0.425,1.873 0.85,3.745 1.275,5.618c1.866,30.894 11.072,47.19 -7.009,50.18c-9.837,1.627 -14.23,-8.106 -14.807,-9.384c-2.553,-5.655 -1.8,-8.353 -1.991,-9.242c-0.448,-1.871 -0.896,-3.742 -1.344,-5.613c-1.028,-15.677 -2.509,-15.377 -3.982,-35.248c-0.145,-1.961 -1.261,-17.015 -2.945,-24.406c0.537,-3.631 0.473,-3.482 -0.496,-7.143c-0.112,-6.98 -0.987,-61.445 0.709,-87.255l0.307,-7.44c-0.012,-0.287 1.086,-4.991 -3.337,-5.178c-26.485,-1.118 -41.072,1.033 -48.672,-3.203c-8.998,-5.014 -7.172,-8.715 -6.379,-17.249c1.815,-0.701 1.77,-0.611 3.093,-2.192c3.942,-3.306 6.812,-3.332 7.466,-3.337c23.248,-0.204 23.124,-0.382 46.341,-0.804Z" style="fill:#008e57;fill-opacity:0.99;"/></g><g id="Star"><path d="M904.255,1475.668c13.405,12.624 37.498,32.4 23.236,34.953c-4.073,0.729 -72.104,-15.986 -77.447,-9.485c-1.941,2.362 -29.042,71.566 -30.26,72.081c-7.259,3.069 -3.889,-3.665 -13.442,-44.551c-4.483,-19.187 -5.247,-31.268 -10.761,-31.397c-37.502,-0.878 -87.955,2.49 -89.997,-7.492c-2.732,-13.357 78.313,-51.822 78.696,-59.586c0.752,-15.285 -34.228,-82.619 10.688,-45.631c23.87,19.656 24.75,25.349 34.559,18.537c46.684,-32.42 83.815,-70.325 69.181,-23.263c-8.252,26.536 -29.689,65.026 -24.526,70.119c2.254,2.223 2.543,1.837 30.074,25.716Z" style="fill:#010000;fill-opacity:1;"/><path d="M800.349,1456.327c-3.474,-16.632 -3.994,-16.626 -3.432,-18.858c1.231,-4.887 21.068,-14.999 23.07,-16.02c2.85,-1.453 3.505,-0.686 36.207,26.21c3.705,3.047 3.669,4.555 -9.989,36.574c-1.711,4.01 -2.716,4.559 -35.709,2.961c-5.101,-0.247 -5.712,-9.918 -10.146,-30.868Z" style="fill:#fedca6;"/><path d="M721.888,1484.271c4.044,-3.606 50.852,-32.76 59.378,-38.409c8.789,-5.824 7.283,1.808 9.412,12.043c5.321,25.578 7.775,29.286 1.199,29.276c-7.664,-0.011 -67.606,0.057 -68.935,-0.974c-0.581,-0.45 -0.473,-1.486 -1.053,-1.936Z" style="fill:#fedca6;"/><path d="M867.72,1387.173c10.283,-7.553 20.853,-16.53 22.535,-14.511c2.398,2.879 -22.666,59.54 -24.907,64.605c-2.627,5.938 -4.28,1.582 -9.227,-2.479c-13.454,-11.043 -24.091,-18.34 -23.431,-21.306c0.458,-2.059 1.325,-1.268 21.065,-15.858c7.02,-5.188 6.892,-5.163 13.965,-10.452Z" style="fill:#fedca6;"/><path d="M866.052,1490.425c-8.393,-0.997 -8.48,-0.629 -9.056,-1.076c-1.938,-1.505 -2.544,-2.557 9.633,-29.128c1.609,-3.511 8.792,3.321 10.792,5.05c15.551,13.439 14.983,13.827 30.463,27.326c0.33,0.288 8.487,7.401 0.97,5.382c-14.803,-3.976 -14.753,-3.428 -42.802,-7.554Z" style="fill:#fedca6;"/><path d="M818.484,1543.196c-3.727,-24.267 -5.596,-23.749 -8.475,-42.44c-1.001,-6.498 28.284,-2.389 28.521,-2.179c2.785,2.469 0.299,3.192 -16.213,43.603c-0.087,0.212 -0.079,0.197 -1.07,2.656c-0.921,-0.547 -1.842,-1.094 -2.762,-1.64Z" style="fill:#fddba5;"/><path d="M677.425,1373.597c18.585,7.906 67.057,16.281 56.145,26.058c-3.377,3.025 -3.727,-1.157 -54.691,-14.855c-21.207,-5.7 -5.199,-12.85 -3.815,-12.563c0.213,0.044 0.175,0.101 2.36,1.361Z" style="fill-opacity:0.99;"/><path d="M887.448,1555.981c10.753,22.696 14.123,29.619 15.372,32.184c1.481,3.041 9.562,17.104 2.316,18.492c-3.75,0.718 -4.726,-0.446 -29.2,-54.199c-4.248,-9.331 4.178,-11.8 7.24,-5.519c1.461,2.996 2.811,6.046 4.272,9.042Z" style="fill-opacity:1;"/><path d="M826.229,1337.41c-0.661,-22.397 -0.827,-22.274 -2.351,-44.557c-0.395,-5.782 9.76,-6.652 10.103,1.919c1.797,44.912 1.448,49.522 1.123,53.816c-0.764,10.099 -9.173,9.672 -9.047,1.801c0.017,-1.038 0.174,-10.83 0.172,-12.979Z" style="fill-opacity:0.99;"/><path d="M744.584,1550.141c3.255,-4.209 6.639,-9.727 16.108,-19.354c8.988,-9.137 16.875,-1.909 10.628,3.142c-22.984,18.586 -29.36,43.793 -37.183,41.918c-10.119,-2.425 6.091,-19.99 10.447,-25.706Z" style="fill-opacity:1;"/><path d="M971.953,1427.4c-33.658,2.5 -49.984,5.344 -43.34,-3.162c2.562,-3.28 56.378,-10.26 58.053,-3.289c1.799,7.486 -14.559,6.442 -14.713,6.451Z" style="fill-opacity:1;"/><path d="M786.234,1389.907c22.637,19.465 29.753,22.616 23.649,26.452c-2.332,1.465 -14.238,9.637 -16.025,8.134c-2.004,-1.684 -0.66,-2.203 -9.033,-31.445c-0.076,-0.265 0.104,-0.233 1.409,-3.141Z" style="fill:#fddba5;"/><path d="M818.484,1543.196c0.921,0.547 1.842,1.094 2.762,1.64c-0.607,-0.014 -0.914,1.015 -1.52,1.001c0,0 -1.143,-2.43 -1.242,-2.642Z" style="fill:#7f6e53;"/></g><g id="Stuff"><path d="M838.571,957.592c0.947,-0.14 0.836,0.15 1.709,-0.252c41.541,-19.112 72.877,6.86 77.71,10.866c1.961,1.792 1.861,1.704 3.907,3.465c0.643,0.594 1.286,1.187 1.929,1.781c0.298,0.297 1.865,1.861 3.67,3.767c1.773,2.019 1.698,1.938 3.528,3.875c3.819,4.41 25.444,33.298 8.988,43.913c-3.119,2.012 -7.033,1.147 -7.138,1.161c-1.593,0.209 -8.59,1.125 -12.738,-15.53c-0.667,-2.077 -0.641,-1.899 -2.006,-3.625c-0.511,-0.696 -1.023,-1.393 -1.534,-2.089c-0.724,-1.163 -1.449,-2.326 -2.173,-3.489c-47.812,-55.302 -100.206,3.871 -92.787,16.692c0.597,0.636 1.195,1.271 1.792,1.907c1.119,0.758 2.238,1.516 3.356,2.274c8.001,6.665 15.364,8.895 33.509,16.844c61.661,27.012 59.705,30.82 65.123,33.001c3.598,1.448 8.792,6.918 9.328,7.333c1.904,1.822 1.775,1.699 3.791,3.617c0.62,0.617 1.24,1.234 1.86,1.851c1.801,1.91 3.286,3.531 3.57,3.84c0.601,0.626 1.202,1.252 1.803,1.877c1.351,1.545 5.372,6.145 12.239,22.544c-0.255,2.646 -0.272,2.519 0.535,5.207c1.309,23.893 5.097,48.87 -55.321,68.564c-1.858,0.552 -3.716,1.104 -5.575,1.656l-3.658,0.389l-7.4,0.618c-25.39,0.282 -26.145,-0.279 -41.026,-3.567c-1.815,-0.264 -3.63,-0.528 -5.445,-0.791c-10.27,-2.953 -11.693,-2.723 -12.717,-2.558c-0.983,0.159 -0.716,-0.505 -11.236,-5.345c-1.194,-0.623 -2.387,-1.246 -3.581,-1.869c-1.455,-0.836 -3.913,-2.673 -4.243,-2.92c-17.715,-13.238 -21.037,-13.553 -29.474,-39.35c-0.501,-1.864 -1.002,-3.728 -1.503,-5.592c-0.085,-10.305 -2.435,-10.741 2.193,-19.975c2.889,-1.365 2.503,-1.768 5.073,-3.827c1.81,-0.594 3.62,-1.188 5.431,-1.782c8.765,0.999 10.261,-0.52 14.606,7.149c0.356,0.628 2.064,3.643 1.281,8.925c-0.316,2.131 -2.732,18.426 9.641,25.139c2.399,3.122 2.363,3.014 5.755,5.113c14.936,8.677 15.396,7.395 31.901,12.054l3.665,0.373c8.58,1.396 8.545,1.2 9.281,1.345c2.468,0.142 4.936,0.284 7.405,0.426c4.038,0.014 28.504,0.101 48.454,-14.158c18.295,-13.076 7.382,-28.302 5.581,-35.753c-0.692,-1.201 -1.383,-2.401 -2.075,-3.602c-0.579,-0.648 -1.158,-1.297 -1.737,-1.945c-0.577,-0.616 -3.701,-3.955 -7.476,-7.447c-1.925,-1.785 -1.784,-1.676 -3.984,-3.356c-1.716,-1.316 -1.775,-0.899 -3.437,-2.243c-1.173,-0.698 -2.345,-1.396 -3.518,-2.094c-3.828,-2.877 -3.9,-2.462 -7.813,-5c-4.593,-2.979 -57.669,-26.41 -62.715,-28.637c-3.288,-1.452 -29.051,-12.825 -36.826,-25.74c-1.509,-2.506 -12.045,-20.009 -0.272,-36.566c0.642,-1.197 1.283,-2.394 1.925,-3.591c1.329,-2.29 1.377,-2.042 3.14,-4.126c1.299,-1.536 5.264,-6.726 5.715,-7.316c1.797,-1.913 3.312,-3.523 3.6,-3.829c0.297,-0.298 1.856,-1.866 3.77,-3.665c7.088,-6.6 7.209,-6.442 7.813,-7.027c0.43,-0.138 2.978,-0.953 4.999,-2.615c2.935,-1.727 2.784,-1.646 5.77,-3.375c2.204,-1.403 2.096,-1.332 4.062,-2.92Z" style="fill:#008e58;fill-opacity:0.99;"/><path d="M1365.358,960.684c0.646,0.582 1.293,1.164 1.939,1.746c1.283,1.489 1.189,1.471 3.014,2.253c1.747,13.742 0.908,13.606 0.221,27.487c-0.701,3.788 -0.836,3.57 -0.983,7.506c-3.813,85.237 -21.287,144.348 -32.137,159.469c-0.691,1.175 -1.382,2.35 -2.073,3.524c-3.682,4.76 -3.246,4.976 -7.233,9.425c-0.623,0.606 -1.246,1.212 -1.869,1.818c-1.912,1.987 -1.814,1.885 -3.583,3.812c-7.073,5.489 -6.934,5.584 -9.493,7.109c-1.214,0.614 -2.429,1.227 -3.643,1.841c-5.347,4.348 -28.809,5.431 -31.353,5.549c-2.653,-0.652 -2.57,-0.749 -5.272,-0.494c-3.094,-0.546 -26.358,-4.654 -37.273,-12.376c-1.18,-0.658 -2.359,-1.315 -3.539,-1.973c-7.047,-5.922 -7.265,-5.494 -13.51,-12.418c-1.285,-1.542 -1.089,-1.518 -2.972,-2.401c-1.305,-3.263 -1.551,-2.963 -3.833,-5.552c-0.671,-2.009 -0.622,-1.872 -1.923,-3.554c-1.791,-2.311 -0.898,-2.654 -2.616,-5.161c-5.609,-8.187 -7.264,-18.015 -7.919,-20.377c-0.212,-0.766 -0.199,-0.559 -2.815,-9.528l-0.576,-3.586c-0.704,-2.542 -4.213,-20.491 -5.376,-35.321l-0.443,-5.557c-0.62,-6.014 -0.842,-5.928 -1.6,-20.433l-0.227,-7.463c-1.799,-19.899 -0.52,-43.311 1.028,-72.391c0.53,-9.96 9.914,-15.052 16.679,-11.658c7.34,3.683 9.893,3.807 8.72,19.058c-0.384,2.194 -2.64,15.064 -0.159,27.845c0.482,28.132 0.611,28.005 0.949,38.93l0.152,5.585c3.087,32.668 3.03,32.553 3.398,35.246l0.542,5.508c6.543,37.198 11.997,47.329 26.965,59.593c1.181,0.698 2.361,1.396 3.542,2.094c6.01,3.102 6.008,2.761 13.163,5.52c1.876,0.524 3.751,1.047 5.627,1.571c10.424,1.666 18.747,1.685 20.383,1.688c1.886,-0.506 3.772,-1.012 5.658,-1.518c9.573,-6.144 9.833,-5.827 16.891,-14.867c0.685,-1.182 1.37,-2.364 2.055,-3.546c10.047,-18.911 9.744,-19.096 16.629,-52.244c0.448,-1.88 0.896,-3.759 1.345,-5.639c2.001,-16.937 7.271,-35.123 7.971,-59.35c0.611,-2.643 0.742,-2.527 0.473,-5.318c1.963,-12.592 1.124,-12.528 1.564,-26.234c0.336,-1.871 0.672,-3.741 1.007,-5.612c0.251,-17.15 0.255,-17.04 0.271,-18.522c0.112,-10.371 13.804,-16.431 22.234,-11.084Z" style="fill:#008e57;fill-opacity:0.99;"/><path d="M1638.218,953.533c12.071,-0.313 11.946,-0.217 24.09,-0.669l11.168,-0.253l1.849,-0.034l5.596,-0.017l3.709,0.068c3.101,0.083 6.202,0.166 9.303,0.25c49.507,1.017 70.519,1.602 73.236,10.984c0.074,0.257 0.861,-0.546 2.125,2.58c0.196,0.484 -0.23,7.401 -1.713,10.564c-3.875,8.262 -16.598,6.604 -18.122,6.406c-29.574,-3.853 -29.612,-1.462 -59.294,-3.526l-7.46,-0.148c-37.271,-1.273 -50.234,-2.21 -50.097,3.168c0.062,2.428 2.631,17.337 2.89,18.84c-0.519,3.614 -0.461,3.48 0.424,7.149c0.359,24.228 0.292,24.028 -0.113,48.379c0.437,2.973 1.142,2.87 4.222,2.296c38.987,-0.65 49.601,0.301 53.896,0.686c2.475,0.128 4.949,0.255 7.424,0.383c2.378,0.074 20.383,0.635 29.708,1.348c1.869,0.115 3.739,0.231 5.608,0.346c7.687,2.111 9.274,0.717 13.527,9.428c0.451,0.924 2.546,5.215 -1.265,12.791c-1.816,0.853 -1.688,0.817 -3.088,2.255c-5.593,4.175 -6.338,4.242 -87.24,-1.111c-3.097,-0.094 -6.194,-0.188 -9.291,-0.281c-9.987,0.114 -15.254,-2.728 -13.793,7.225c-0.295,5.564 -0.767,5.432 0.461,10.905c0.2,4.319 0.401,8.637 0.601,12.956c0.389,1.876 0.779,3.753 1.168,5.629c1.157,15.776 1.627,15.531 2.556,31.49c0.385,1.874 0.771,3.747 1.156,5.621c-0.21,1.249 -0.421,2.497 -0.631,3.746c-0.317,1.807 -0.635,3.614 -0.952,5.421c-0.535,1.595 -3.443,5.009 -3.786,5.411c-2.799,0.642 -2.686,0.672 -5.311,1.991c-19.636,-0.797 -15.625,-8.5 -19.487,-35.421c0.329,-2.672 0.285,-2.538 -0.365,-5.307c-0.992,-15.885 -1.922,-15.71 -2.623,-31.507c-0.408,-13.699 -0.391,-13.61 -0.463,-14.877l0.003,-9.278c0.32,-10.262 0.26,-10.102 0.371,-20.45c1.227,-46.09 -0.124,-60.021 -0.627,-65.214c0.536,-3.654 0.463,-3.506 -0.509,-7.15c-0.294,-5.875 -0.161,-5.737 -1.36,-11.436c0.074,-1.741 0.149,-3.482 0.223,-5.223l-0.02,-1.902l0.347,-3.813c0.518,-1.209 4.858,-11.349 13.439,-9.476c1.836,0.204 3.672,0.407 5.508,0.611c2.441,-0.259 4.881,-0.517 7.322,-0.776c1.893,-0.351 3.787,-0.703 5.68,-1.054Z" style="fill:#008e57;fill-opacity:0.99;"/><path d="M1489.671,950.933l5.587,-0.307c15.276,-2.014 57.463,0.585 61.18,2.814c9.376,5.624 13.37,25.745 -11.017,25.517c-34.47,-0.323 -34.371,-2.177 -68.681,-0.128c-23.255,1.389 -28.94,-4.291 -30.342,7.668c-1.661,14.167 -3.48,70.996 0.794,72.127c1.916,0.507 1.931,0.245 16.503,-0.079l5.57,-0.306c0.884,-0.164 0.739,0.015 11.167,-1.252c2.463,-0.189 4.925,-0.378 7.388,-0.567c10.814,-2.027 29.622,-0.853 53.874,-0.747c2.48,0.484 4.961,0.968 7.441,1.452c5.527,2.643 5.572,2.486 9.378,7.388c4.486,5.778 -0.043,19.66 -13.1,19.124c-46.41,-1.904 -46.309,-0.296 -74.243,0.993c-12.443,0.574 -23.155,-2.363 -22.777,2.07c0.278,3.268 1.874,22.004 2.765,40.911c0.08,1.863 0.159,3.727 0.239,5.59c5.21,45.897 1.624,50.181 -1.122,53.461c-0.457,0.546 -0.725,0.866 -7.316,5.064c-6.296,-0.974 -6.235,-0.994 -7.01,-1.04c-0.791,-0.43 -0.825,-0.002 -1.631,-0.44c-0.176,-0.096 -0,-0 -2.058,-1.417c-1.384,-1.434 -1.301,-1.368 -3.198,-2.151c-4.674,-16.887 -0.842,-18.824 -3.298,-34.787c-0.544,-3.534 -1.527,-9.924 -3.296,-44.569l-0.31,-5.571c-0.703,-3.796 -1.324,-11.957 -1.403,-13l-0.415,-5.558c-0.241,-1.17 -0.063,-1.077 -1.438,-14.867l-0.358,-5.563c-1.818,-13.453 -0.841,-39.367 -0.803,-50.15c0.405,-2.493 0.81,-4.985 1.215,-7.478c1.967,-31.818 3.563,-38.838 13.585,-45.933c6.354,-4.498 25.445,-5.697 36.739,-6.264l5.54,-0.415c1.17,-0.242 3.804,-0.786 14.85,-1.591Z" style="fill:#008e57;fill-opacity:0.99;"/><path d="M1031.575,965.256c3.673,0.264 3.534,0.195 7.147,-0.363c84.106,-0.524 113.793,-1.417 117.946,4.021c0.996,1.304 3.592,6.247 3.884,6.801c0.134,0.255 0.626,6.294 -3.669,14.167c-1.871,0.889 -1.714,0.869 -3.119,2.239c-9.6,6.583 -12.684,0.136 -24.084,-0.059c-43.265,-0.74 -44.175,-1.058 -45.969,2.157c-1.217,2.18 0.512,21.275 -0.803,59.2c-0.904,26.084 -1.726,25.851 -2.068,52.002c-0.884,11.167 -0.887,11.027 0.006,22.24c0.26,20.233 0.03,20.129 1.538,28.136c-0.044,0.842 -0.395,0.663 -0.438,1.492c-0.032,0.608 -0.014,0.563 -0.193,7.603c-1.048,2.474 -0.733,2.398 -1.147,5.165c-0.394,0.124 -2.585,0.813 -4.435,2.636c-2.435,2.399 -2.699,1.759 -5.907,2.839c-11.792,-1.998 -12.358,-3.144 -15.759,-14.748c-0.965,-3.295 0.028,-16.757 -1.929,-27.791c1.796,-8.85 0.782,-8.893 0.556,-35.063c0.09,-2.525 0.86,-24.12 1.624,-31.539l0.268,-5.591c0.815,-20.342 1.144,-22.205 1.481,-24.107c0.13,-3.718 0.261,-7.435 0.391,-11.153c0.497,-12.504 1.492,-31.211 0.549,-31.588c-5.035,-2.011 -5.151,-1.792 -40.971,-1.516c-6.441,0.089 -6.254,-0.035 -12.661,0.663c-20.281,12.565 -30.542,-15.626 -13.102,-22.703c3.008,-1.221 2.989,-0.907 12.726,-2.542c3.724,-0.426 7.448,-0.851 11.172,-1.277c8.626,-0.366 8.486,-0.429 16.967,-1.319Z" style="fill:#008e58;fill-opacity:0.99;"/></g></svg>